<?xml version='1.0' encoding='utf-8'?>
<mlt LC_NUMERIC="de_DE" producer="main_bin" version="6.21.0" root="C:/Users/wimme/Documents/1_uni/1_master/semester_3/manifold/manifold-lle/3_presentation">
 <profile frame_rate_num="30" sample_aspect_num="1" display_aspect_den="9" colorspace="709" progressive="1" description="HD 1080p 30 fps" display_aspect_num="16" frame_rate_den="1" width="1920" height="1080" sample_aspect_den="1"/>
 <producer id="producer0" in="00:00:00,000" out="00:53:11,733">
  <property name="length">95753</property>
  <property name="eof">pause</property>
  <property name="resource">presentation_video.mp4</property>
  <property name="meta.media.nb_streams">2</property>
  <property name="meta.media.0.stream.type">audio</property>
  <property name="meta.media.0.codec.sample_fmt">fltp</property>
  <property name="meta.media.0.codec.sample_rate">32000</property>
  <property name="meta.media.0.codec.channels">1</property>
  <property name="meta.media.0.codec.name">aac</property>
  <property name="meta.media.0.codec.long_name">AAC (Advanced Audio Coding)</property>
  <property name="meta.media.0.codec.bit_rate">126250</property>
  <property name="meta.attr.0.stream.creation_time.markup">2021-03-05T12:12:41.000000Z</property>
  <property name="meta.attr.0.stream.handler_name.markup">AAC audio</property>
  <property name="meta.media.1.stream.type">video</property>
  <property name="meta.media.1.stream.frame_rate">25</property>
  <property name="meta.media.1.stream.sample_aspect_ratio">0</property>
  <property name="meta.media.1.codec.width">1920</property>
  <property name="meta.media.1.codec.height">1080</property>
  <property name="meta.media.1.codec.rotate">0</property>
  <property name="meta.media.1.codec.frame_rate">30000</property>
  <property name="meta.media.1.codec.pix_fmt">yuv420p</property>
  <property name="meta.media.1.codec.sample_aspect_ratio">0</property>
  <property name="meta.media.1.codec.colorspace">709</property>
  <property name="meta.media.1.codec.name">h264</property>
  <property name="meta.media.1.codec.long_name">H.264 / AVC / MPEG-4 AVC / MPEG-4 part 10</property>
  <property name="meta.media.1.codec.bit_rate">290275</property>
  <property name="meta.attr.1.stream.creation_time.markup">2021-03-05T12:12:41.000000Z</property>
  <property name="meta.attr.1.stream.handler_name.markup">H.264/AVC video</property>
  <property name="meta.attr.1.stream.encoder.markup">AVC Coding</property>
  <property name="meta.attr.major_brand.markup">mp42</property>
  <property name="meta.attr.minor_version.markup">0</property>
  <property name="meta.attr.compatible_brands.markup">isommp42</property>
  <property name="meta.attr.creation_time.markup">2021-03-05T12:12:41.000000Z</property>
  <property name="seekable">1</property>
  <property name="meta.media.sample_aspect_num">1</property>
  <property name="meta.media.sample_aspect_den">1</property>
  <property name="aspect_ratio">1</property>
  <property name="audio_index">0</property>
  <property name="video_index">1</property>
  <property name="mute_on_pause">0</property>
  <property name="mlt_service">avformat-novalidate</property>
  <property name="kdenlive:clipname"/>
  <property name="meta.media.frame_rate_num">25</property>
  <property name="meta.media.frame_rate_den">1</property>
  <property name="meta.media.colorspace">709</property>
  <property name="meta.media.color_trc">2</property>
  <property name="meta.media.width">1920</property>
  <property name="meta.media.height">1080</property>
  <property name="meta.media.color_range">mpeg</property>
  <property name="meta.media.top_field_first">0</property>
  <property name="meta.media.progressive">1</property>
  <property name="kdenlive:folderid">-1</property>
  <property name="kdenlive:id">2</property>
  <property name="kdenlive:file_size">167032913</property>
  <property name="kdenlive:file_hash">6e17c157ae37769ad71074e34243beb5</property>
  <property name="global_feed">1</property>
  <property name="kdenlive:zone_in">0</property>
  <property name="kdenlive:zone_out">95753</property>
 </producer>
 <producer id="producer1" in="00:00:00,000" out="00:00:46,200">
  <property name="length">1387</property>
  <property name="eof">pause</property>
  <property name="resource">VID_20210305_132802.mp4</property>
  <property name="meta.media.nb_streams">2</property>
  <property name="meta.media.0.stream.type">video</property>
  <property name="meta.media.0.stream.frame_rate">30,0001</property>
  <property name="meta.media.0.stream.sample_aspect_ratio">1</property>
  <property name="meta.media.0.codec.width">1920</property>
  <property name="meta.media.0.codec.height">1080</property>
  <property name="meta.media.0.codec.rotate">270</property>
  <property name="meta.media.0.codec.frame_rate">90000</property>
  <property name="meta.media.0.codec.pix_fmt">yuv420p</property>
  <property name="meta.media.0.codec.sample_aspect_ratio">0</property>
  <property name="meta.media.0.codec.colorspace">709</property>
  <property name="meta.media.0.codec.color_trc">1</property>
  <property name="meta.media.0.codec.name">h264</property>
  <property name="meta.media.0.codec.long_name">H.264 / AVC / MPEG-4 AVC / MPEG-4 part 10</property>
  <property name="meta.media.0.codec.bit_rate">11622277</property>
  <property name="meta.attr.0.stream.rotate.markup">270</property>
  <property name="meta.attr.0.stream.creation_time.markup">2021-03-05T12:28:02.000000Z</property>
  <property name="meta.attr.0.stream.language.markup">eng</property>
  <property name="meta.attr.0.stream.handler_name.markup">VideoHandle</property>
  <property name="meta.media.1.stream.type">audio</property>
  <property name="meta.media.1.codec.sample_fmt">fltp</property>
  <property name="meta.media.1.codec.sample_rate">48000</property>
  <property name="meta.media.1.codec.channels">2</property>
  <property name="meta.media.1.codec.name">aac</property>
  <property name="meta.media.1.codec.long_name">AAC (Advanced Audio Coding)</property>
  <property name="meta.media.1.codec.bit_rate">192025</property>
  <property name="meta.attr.1.stream.creation_time.markup">2021-03-05T12:28:02.000000Z</property>
  <property name="meta.attr.1.stream.language.markup">eng</property>
  <property name="meta.attr.1.stream.handler_name.markup">SoundHandle</property>
  <property name="meta.attr.major_brand.markup">mp42</property>
  <property name="meta.attr.minor_version.markup">0</property>
  <property name="meta.attr.compatible_brands.markup">isommp42</property>
  <property name="meta.attr.creation_time.markup">2021-03-05T12:28:02.000000Z</property>
  <property name="meta.attr.com.android.version.markup">10</property>
  <property name="seekable">1</property>
  <property name="meta.media.sample_aspect_num">1</property>
  <property name="meta.media.sample_aspect_den">1</property>
  <property name="aspect_ratio">1</property>
  <property name="audio_index">1</property>
  <property name="video_index">0</property>
  <property name="mute_on_pause">0</property>
  <property name="mlt_service">avformat-novalidate</property>
  <property name="kdenlive:clipname"/>
  <property name="kdenlive:folderid">-1</property>
  <property name="meta.media.frame_rate_num">41610000</property>
  <property name="meta.media.frame_rate_den">1386997</property>
  <property name="meta.media.colorspace">709</property>
  <property name="meta.media.color_trc">1</property>
  <property name="meta.media.width">1080</property>
  <property name="meta.media.height">1920</property>
  <property name="meta.media.color_range">mpeg</property>
  <property name="kdenlive:id">3</property>
  <property name="kdenlive:file_size">69086542</property>
  <property name="kdenlive:file_hash">90fa639c30e71b8091394828fdbfcd9d</property>
  <property name="meta.media.top_field_first">0</property>
  <property name="meta.media.progressive">1</property>
  <property name="global_feed">1</property>
 </producer>
 <producer id="producer2" in="00:00:00,000" out="00:02:41,567">
  <property name="length">4848</property>
  <property name="eof">pause</property>
  <property name="resource">zoom_1.mp4</property>
  <property name="meta.media.nb_streams">2</property>
  <property name="meta.media.0.stream.type">audio</property>
  <property name="meta.media.0.codec.sample_fmt">fltp</property>
  <property name="meta.media.0.codec.sample_rate">32000</property>
  <property name="meta.media.0.codec.channels">1</property>
  <property name="meta.media.0.codec.name">aac</property>
  <property name="meta.media.0.codec.long_name">AAC (Advanced Audio Coding)</property>
  <property name="meta.media.0.codec.bit_rate">126250</property>
  <property name="meta.attr.0.stream.creation_time.markup">2021-03-05T15:03:15.000000Z</property>
  <property name="meta.attr.0.stream.handler_name.markup">AAC audio</property>
  <property name="meta.media.1.stream.type">video</property>
  <property name="meta.media.1.stream.frame_rate">25</property>
  <property name="meta.media.1.stream.sample_aspect_ratio">0</property>
  <property name="meta.media.1.codec.width">1920</property>
  <property name="meta.media.1.codec.height">1080</property>
  <property name="meta.media.1.codec.rotate">0</property>
  <property name="meta.media.1.codec.frame_rate">30000</property>
  <property name="meta.media.1.codec.pix_fmt">yuv420p</property>
  <property name="meta.media.1.codec.sample_aspect_ratio">0</property>
  <property name="meta.media.1.codec.colorspace">709</property>
  <property name="meta.media.1.codec.name">h264</property>
  <property name="meta.media.1.codec.long_name">H.264 / AVC / MPEG-4 AVC / MPEG-4 part 10</property>
  <property name="meta.media.1.codec.bit_rate">224043</property>
  <property name="meta.attr.1.stream.creation_time.markup">2021-03-05T15:03:15.000000Z</property>
  <property name="meta.attr.1.stream.handler_name.markup">H.264/AVC video</property>
  <property name="meta.attr.1.stream.encoder.markup">AVC Coding</property>
  <property name="meta.attr.major_brand.markup">mp42</property>
  <property name="meta.attr.minor_version.markup">0</property>
  <property name="meta.attr.compatible_brands.markup">isommp42</property>
  <property name="meta.attr.creation_time.markup">2021-03-05T15:03:15.000000Z</property>
  <property name="seekable">1</property>
  <property name="meta.media.sample_aspect_num">1</property>
  <property name="meta.media.sample_aspect_den">1</property>
  <property name="aspect_ratio">1</property>
  <property name="audio_index">0</property>
  <property name="video_index">1</property>
  <property name="mute_on_pause">0</property>
  <property name="mlt_service">avformat-novalidate</property>
  <property name="kdenlive:clipname"/>
  <property name="kdenlive:folderid">-1</property>
  <property name="meta.media.frame_rate_num">25</property>
  <property name="meta.media.frame_rate_den">1</property>
  <property name="meta.media.colorspace">709</property>
  <property name="meta.media.color_trc">2</property>
  <property name="meta.media.width">1920</property>
  <property name="meta.media.height">1080</property>
  <property name="meta.media.color_range">mpeg</property>
  <property name="kdenlive:id">4</property>
  <property name="kdenlive:file_size">7119832</property>
  <property name="kdenlive:file_hash">ef4194f0d212a9183c5e321f5da59b8c</property>
  <property name="meta.media.top_field_first">0</property>
  <property name="meta.media.progressive">1</property>
  <property name="global_feed">1</property>
 </producer>
 <playlist id="main_bin">
  <property name="kdenlive:docproperties.activeTrack">0</property>
  <property name="kdenlive:docproperties.audioTarget">1</property>
  <property name="kdenlive:docproperties.decimalPoint">,</property>
  <property name="kdenlive:docproperties.disablepreview">0</property>
  <property name="kdenlive:docproperties.documentid">1614948383577</property>
  <property name="kdenlive:docproperties.enableTimelineZone">0</property>
  <property name="kdenlive:docproperties.enableexternalproxy">0</property>
  <property name="kdenlive:docproperties.enableproxy">0</property>
  <property name="kdenlive:docproperties.externalproxyparams">../Sub;;S03.MP4;../Clip;;.MXF</property>
  <property name="kdenlive:docproperties.generateimageproxy">0</property>
  <property name="kdenlive:docproperties.generateproxy">0</property>
  <property name="kdenlive:docproperties.kdenliveversion">20.04.1</property>
  <property name="kdenlive:docproperties.position">66621</property>
  <property name="kdenlive:docproperties.previewextension"/>
  <property name="kdenlive:docproperties.previewparameters"/>
  <property name="kdenlive:docproperties.profile">atsc_1080p_30</property>
  <property name="kdenlive:docproperties.proxyextension"/>
  <property name="kdenlive:docproperties.proxyimageminsize">2000</property>
  <property name="kdenlive:docproperties.proxyimagesize">800</property>
  <property name="kdenlive:docproperties.proxyminsize">1000</property>
  <property name="kdenlive:docproperties.proxyparams"/>
  <property name="kdenlive:docproperties.scrollPos">71372</property>
  <property name="kdenlive:docproperties.seekOffset">30000</property>
  <property name="kdenlive:docproperties.version">0.99</property>
  <property name="kdenlive:docproperties.verticalzoom">1</property>
  <property name="kdenlive:docproperties.videoTarget">2</property>
  <property name="kdenlive:docproperties.zonein">315</property>
  <property name="kdenlive:docproperties.zoneout">374</property>
  <property name="kdenlive:docproperties.zoom">6</property>
  <property name="kdenlive:documentnotes"/>
  <property name="kdenlive:docproperties.groups">[
    {
        "children": [
            {
                "data": "3:65562",
                "leaf": "clip",
                "type": "Leaf"
            },
            {
                "data": "0:65562",
                "leaf": "clip",
                "type": "Leaf"
            }
        ],
        "type": "AVSplit"
    },
    {
        "children": [
            {
                "data": "3:63529",
                "leaf": "clip",
                "type": "Leaf"
            },
            {
                "data": "0:63529",
                "leaf": "clip",
                "type": "Leaf"
            }
        ],
        "type": "AVSplit"
    },
    {
        "children": [
            {
                "data": "3:63308",
                "leaf": "clip",
                "type": "Leaf"
            },
            {
                "data": "0:63308",
                "leaf": "clip",
                "type": "Leaf"
            }
        ],
        "type": "AVSplit"
    },
    {
        "children": [
            {
                "data": "3:20723",
                "leaf": "clip",
                "type": "Leaf"
            },
            {
                "data": "0:20723",
                "leaf": "clip",
                "type": "Leaf"
            }
        ],
        "type": "AVSplit"
    },
    {
        "children": [
            {
                "data": "3:34516",
                "leaf": "clip",
                "type": "Leaf"
            },
            {
                "data": "0:34516",
                "leaf": "clip",
                "type": "Leaf"
            }
        ],
        "type": "AVSplit"
    },
    {
        "children": [
            {
                "data": "0:22992",
                "leaf": "clip",
                "type": "Leaf"
            },
            {
                "data": "3:22992",
                "leaf": "clip",
                "type": "Leaf"
            }
        ],
        "type": "AVSplit"
    },
    {
        "children": [
            {
                "data": "3:13108",
                "leaf": "clip",
                "type": "Leaf"
            },
            {
                "data": "0:13108",
                "leaf": "clip",
                "type": "Leaf"
            }
        ],
        "type": "AVSplit"
    },
    {
        "children": [
            {
                "data": "3:46923",
                "leaf": "clip",
                "type": "Leaf"
            },
            {
                "data": "0:46923",
                "leaf": "clip",
                "type": "Leaf"
            }
        ],
        "type": "AVSplit"
    },
    {
        "children": [
            {
                "data": "3:16713",
                "leaf": "clip",
                "type": "Leaf"
            },
            {
                "data": "0:16713",
                "leaf": "clip",
                "type": "Leaf"
            }
        ],
        "type": "AVSplit"
    },
    {
        "children": [
            {
                "data": "3:15607",
                "leaf": "clip",
                "type": "Leaf"
            },
            {
                "data": "0:15607",
                "leaf": "clip",
                "type": "Leaf"
            }
        ],
        "type": "AVSplit"
    },
    {
        "children": [
            {
                "data": "3:7232",
                "leaf": "clip",
                "type": "Leaf"
            },
            {
                "data": "0:7232",
                "leaf": "clip",
                "type": "Leaf"
            }
        ],
        "type": "AVSplit"
    },
    {
        "children": [
            {
                "data": "3:15918",
                "leaf": "clip",
                "type": "Leaf"
            },
            {
                "data": "0:15918",
                "leaf": "clip",
                "type": "Leaf"
            }
        ],
        "type": "AVSplit"
    },
    {
        "children": [
            {
                "data": "3:38928",
                "leaf": "clip",
                "type": "Leaf"
            },
            {
                "data": "0:38928",
                "leaf": "clip",
                "type": "Leaf"
            }
        ],
        "type": "AVSplit"
    },
    {
        "children": [
            {
                "data": "3:54023",
                "leaf": "clip",
                "type": "Leaf"
            },
            {
                "data": "0:54023",
                "leaf": "clip",
                "type": "Leaf"
            }
        ],
        "type": "AVSplit"
    },
    {
        "children": [
            {
                "data": "0:29673",
                "leaf": "clip",
                "type": "Leaf"
            },
            {
                "data": "3:29673",
                "leaf": "clip",
                "type": "Leaf"
            }
        ],
        "type": "AVSplit"
    },
    {
        "children": [
            {
                "data": "3:6637",
                "leaf": "clip",
                "type": "Leaf"
            },
            {
                "data": "0:6637",
                "leaf": "clip",
                "type": "Leaf"
            }
        ],
        "type": "AVSplit"
    },
    {
        "children": [
            {
                "data": "3:19283",
                "leaf": "clip",
                "type": "Leaf"
            },
            {
                "data": "0:19283",
                "leaf": "clip",
                "type": "Leaf"
            }
        ],
        "type": "AVSplit"
    },
    {
        "children": [
            {
                "data": "3:1671",
                "leaf": "clip",
                "type": "Leaf"
            },
            {
                "data": "0:1671",
                "leaf": "clip",
                "type": "Leaf"
            }
        ],
        "type": "AVSplit"
    },
    {
        "children": [
            {
                "data": "3:40435",
                "leaf": "clip",
                "type": "Leaf"
            },
            {
                "data": "0:40435",
                "leaf": "clip",
                "type": "Leaf"
            }
        ],
        "type": "AVSplit"
    },
    {
        "children": [
            {
                "data": "3:13760",
                "leaf": "clip",
                "type": "Leaf"
            },
            {
                "data": "0:13760",
                "leaf": "clip",
                "type": "Leaf"
            }
        ],
        "type": "AVSplit"
    },
    {
        "children": [
            {
                "data": "3:13975",
                "leaf": "clip",
                "type": "Leaf"
            },
            {
                "data": "0:13975",
                "leaf": "clip",
                "type": "Leaf"
            }
        ],
        "type": "AVSplit"
    },
    {
        "children": [
            {
                "data": "3:53386",
                "leaf": "clip",
                "type": "Leaf"
            },
            {
                "data": "0:53386",
                "leaf": "clip",
                "type": "Leaf"
            }
        ],
        "type": "AVSplit"
    },
    {
        "children": [
            {
                "data": "0:29401",
                "leaf": "clip",
                "type": "Leaf"
            },
            {
                "data": "3:29401",
                "leaf": "clip",
                "type": "Leaf"
            }
        ],
        "type": "AVSplit"
    },
    {
        "children": [
            {
                "data": "3:6267",
                "leaf": "clip",
                "type": "Leaf"
            },
            {
                "data": "0:6267",
                "leaf": "clip",
                "type": "Leaf"
            }
        ],
        "type": "AVSplit"
    },
    {
        "children": [
            {
                "data": "3:8524",
                "leaf": "clip",
                "type": "Leaf"
            },
            {
                "data": "0:8524",
                "leaf": "clip",
                "type": "Leaf"
            }
        ],
        "type": "AVSplit"
    },
    {
        "children": [
            {
                "data": "3:23772",
                "leaf": "clip",
                "type": "Leaf"
            },
            {
                "data": "0:23772",
                "leaf": "clip",
                "type": "Leaf"
            }
        ],
        "type": "AVSplit"
    },
    {
        "children": [
            {
                "data": "0:1",
                "leaf": "clip",
                "type": "Leaf"
            },
            {
                "data": "3:1",
                "leaf": "clip",
                "type": "Leaf"
            }
        ],
        "type": "AVSplit"
    },
    {
        "children": [
            {
                "data": "3:17352",
                "leaf": "clip",
                "type": "Leaf"
            },
            {
                "data": "0:17352",
                "leaf": "clip",
                "type": "Leaf"
            }
        ],
        "type": "AVSplit"
    },
    {
        "children": [
            {
                "data": "3:25279",
                "leaf": "clip",
                "type": "Leaf"
            },
            {
                "data": "0:25279",
                "leaf": "clip",
                "type": "Leaf"
            }
        ],
        "type": "AVSplit"
    },
    {
        "children": [
            {
                "data": "3:45342",
                "leaf": "clip",
                "type": "Leaf"
            },
            {
                "data": "0:45342",
                "leaf": "clip",
                "type": "Leaf"
            }
        ],
        "type": "AVSplit"
    },
    {
        "children": [
            {
                "data": "3:10272",
                "leaf": "clip",
                "type": "Leaf"
            },
            {
                "data": "0:10272",
                "leaf": "clip",
                "type": "Leaf"
            }
        ],
        "type": "AVSplit"
    },
    {
        "children": [
            {
                "data": "3:7495",
                "leaf": "clip",
                "type": "Leaf"
            },
            {
                "data": "0:7495",
                "leaf": "clip",
                "type": "Leaf"
            }
        ],
        "type": "AVSplit"
    },
    {
        "children": [
            {
                "data": "0:66214",
                "leaf": "clip",
                "type": "Leaf"
            },
            {
                "data": "3:66214",
                "leaf": "clip",
                "type": "Leaf"
            }
        ],
        "type": "AVSplit"
    },
    {
        "children": [
            {
                "data": "0:32279",
                "leaf": "clip",
                "type": "Leaf"
            },
            {
                "data": "3:32279",
                "leaf": "clip",
                "type": "Leaf"
            }
        ],
        "type": "AVSplit"
    },
    {
        "children": [
            {
                "data": "3:43384",
                "leaf": "clip",
                "type": "Leaf"
            },
            {
                "data": "0:43384",
                "leaf": "clip",
                "type": "Leaf"
            }
        ],
        "type": "AVSplit"
    },
    {
        "children": [
            {
                "data": "3:40154",
                "leaf": "clip",
                "type": "Leaf"
            },
            {
                "data": "0:40154",
                "leaf": "clip",
                "type": "Leaf"
            }
        ],
        "type": "AVSplit"
    },
    {
        "children": [
            {
                "data": "3:40510",
                "leaf": "clip",
                "type": "Leaf"
            },
            {
                "data": "0:40510",
                "leaf": "clip",
                "type": "Leaf"
            }
        ],
        "type": "AVSplit"
    },
    {
        "children": [
            {
                "data": "3:36687",
                "leaf": "clip",
                "type": "Leaf"
            },
            {
                "data": "0:36687",
                "leaf": "clip",
                "type": "Leaf"
            }
        ],
        "type": "AVSplit"
    },
    {
        "children": [
            {
                "data": "3:43475",
                "leaf": "clip",
                "type": "Leaf"
            },
            {
                "data": "0:43475",
                "leaf": "clip",
                "type": "Leaf"
            }
        ],
        "type": "AVSplit"
    },
    {
        "children": [
            {
                "data": "0:32486",
                "leaf": "clip",
                "type": "Leaf"
            },
            {
                "data": "3:32486",
                "leaf": "clip",
                "type": "Leaf"
            }
        ],
        "type": "AVSplit"
    },
    {
        "children": [
            {
                "data": "3:24018",
                "leaf": "clip",
                "type": "Leaf"
            },
            {
                "data": "0:24018",
                "leaf": "clip",
                "type": "Leaf"
            }
        ],
        "type": "AVSplit"
    },
    {
        "children": [
            {
                "data": "3:49507",
                "leaf": "clip",
                "type": "Leaf"
            },
            {
                "data": "0:49507",
                "leaf": "clip",
                "type": "Leaf"
            }
        ],
        "type": "AVSplit"
    },
    {
        "children": [
            {
                "data": "0:31929",
                "leaf": "clip",
                "type": "Leaf"
            },
            {
                "data": "3:31929",
                "leaf": "clip",
                "type": "Leaf"
            }
        ],
        "type": "AVSplit"
    },
    {
        "children": [
            {
                "data": "3:7778",
                "leaf": "clip",
                "type": "Leaf"
            },
            {
                "data": "0:7778",
                "leaf": "clip",
                "type": "Leaf"
            }
        ],
        "type": "AVSplit"
    },
    {
        "children": [
            {
                "data": "3:8264",
                "leaf": "clip",
                "type": "Leaf"
            },
            {
                "data": "0:8264",
                "leaf": "clip",
                "type": "Leaf"
            }
        ],
        "type": "AVSplit"
    },
    {
        "children": [
            {
                "data": "3:19772",
                "leaf": "clip",
                "type": "Leaf"
            },
            {
                "data": "0:19772",
                "leaf": "clip",
                "type": "Leaf"
            }
        ],
        "type": "AVSplit"
    },
    {
        "children": [
            {
                "data": "3:36343",
                "leaf": "clip",
                "type": "Leaf"
            },
            {
                "data": "0:36343",
                "leaf": "clip",
                "type": "Leaf"
            }
        ],
        "type": "AVSplit"
    },
    {
        "children": [
            {
                "data": "3:19441",
                "leaf": "clip",
                "type": "Leaf"
            },
            {
                "data": "0:19441",
                "leaf": "clip",
                "type": "Leaf"
            }
        ],
        "type": "AVSplit"
    },
    {
        "children": [
            {
                "data": "3:2264",
                "leaf": "clip",
                "type": "Leaf"
            },
            {
                "data": "0:2264",
                "leaf": "clip",
                "type": "Leaf"
            }
        ],
        "type": "AVSplit"
    },
    {
        "children": [
            {
                "data": "3:39453",
                "leaf": "clip",
                "type": "Leaf"
            },
            {
                "data": "0:39453",
                "leaf": "clip",
                "type": "Leaf"
            }
        ],
        "type": "AVSplit"
    },
    {
        "children": [
            {
                "data": "1:58295",
                "leaf": "clip",
                "type": "Leaf"
            },
            {
                "data": "2:58295",
                "leaf": "clip",
                "type": "Leaf"
            }
        ],
        "type": "AVSplit"
    },
    {
        "children": [
            {
                "data": "3:53734",
                "leaf": "clip",
                "type": "Leaf"
            },
            {
                "data": "0:53734",
                "leaf": "clip",
                "type": "Leaf"
            }
        ],
        "type": "AVSplit"
    },
    {
        "children": [
            {
                "data": "3:11661",
                "leaf": "clip",
                "type": "Leaf"
            },
            {
                "data": "0:11661",
                "leaf": "clip",
                "type": "Leaf"
            }
        ],
        "type": "AVSplit"
    },
    {
        "children": [
            {
                "data": "3:36038",
                "leaf": "clip",
                "type": "Leaf"
            },
            {
                "data": "0:36038",
                "leaf": "clip",
                "type": "Leaf"
            }
        ],
        "type": "AVSplit"
    },
    {
        "children": [
            {
                "data": "3:24645",
                "leaf": "clip",
                "type": "Leaf"
            },
            {
                "data": "0:24645",
                "leaf": "clip",
                "type": "Leaf"
            }
        ],
        "type": "AVSplit"
    },
    {
        "children": [
            {
                "data": "0:153",
                "leaf": "clip",
                "type": "Leaf"
            },
            {
                "data": "3:153",
                "leaf": "clip",
                "type": "Leaf"
            }
        ],
        "type": "AVSplit"
    },
    {
        "children": [
            {
                "data": "0:29212",
                "leaf": "clip",
                "type": "Leaf"
            },
            {
                "data": "3:29212",
                "leaf": "clip",
                "type": "Leaf"
            }
        ],
        "type": "AVSplit"
    },
    {
        "children": [
            {
                "data": "3:20733",
                "leaf": "clip",
                "type": "Leaf"
            },
            {
                "data": "0:20733",
                "leaf": "clip",
                "type": "Leaf"
            }
        ],
        "type": "AVSplit"
    },
    {
        "children": [
            {
                "data": "3:11075",
                "leaf": "clip",
                "type": "Leaf"
            },
            {
                "data": "0:11075",
                "leaf": "clip",
                "type": "Leaf"
            }
        ],
        "type": "AVSplit"
    },
    {
        "children": [
            {
                "data": "1:56274",
                "leaf": "clip",
                "type": "Leaf"
            },
            {
                "data": "2:56274",
                "leaf": "clip",
                "type": "Leaf"
            }
        ],
        "type": "AVSplit"
    },
    {
        "children": [
            {
                "data": "0:32026",
                "leaf": "clip",
                "type": "Leaf"
            },
            {
                "data": "3:32026",
                "leaf": "clip",
                "type": "Leaf"
            }
        ],
        "type": "AVSplit"
    },
    {
        "children": [
            {
                "data": "3:16366",
                "leaf": "clip",
                "type": "Leaf"
            },
            {
                "data": "0:16366",
                "leaf": "clip",
                "type": "Leaf"
            }
        ],
        "type": "AVSplit"
    },
    {
        "children": [
            {
                "data": "1:58128",
                "leaf": "clip",
                "type": "Leaf"
            },
            {
                "data": "2:58128",
                "leaf": "clip",
                "type": "Leaf"
            }
        ],
        "type": "AVSplit"
    },
    {
        "children": [
            {
                "data": "3:25974",
                "leaf": "clip",
                "type": "Leaf"
            },
            {
                "data": "0:25974",
                "leaf": "clip",
                "type": "Leaf"
            }
        ],
        "type": "AVSplit"
    },
    {
        "children": [
            {
                "data": "3:17139",
                "leaf": "clip",
                "type": "Leaf"
            },
            {
                "data": "0:17139",
                "leaf": "clip",
                "type": "Leaf"
            }
        ],
        "type": "AVSplit"
    },
    {
        "children": [
            {
                "data": "3:26167",
                "leaf": "clip",
                "type": "Leaf"
            },
            {
                "data": "0:26167",
                "leaf": "clip",
                "type": "Leaf"
            }
        ],
        "type": "AVSplit"
    },
    {
        "children": [
            {
                "data": "3:51004",
                "leaf": "clip",
                "type": "Leaf"
            },
            {
                "data": "0:51004",
                "leaf": "clip",
                "type": "Leaf"
            }
        ],
        "type": "AVSplit"
    },
    {
        "children": [
            {
                "data": "3:26523",
                "leaf": "clip",
                "type": "Leaf"
            },
            {
                "data": "0:26523",
                "leaf": "clip",
                "type": "Leaf"
            }
        ],
        "type": "AVSplit"
    },
    {
        "children": [
            {
                "data": "0:31449",
                "leaf": "clip",
                "type": "Leaf"
            },
            {
                "data": "3:31449",
                "leaf": "clip",
                "type": "Leaf"
            }
        ],
        "type": "AVSplit"
    },
    {
        "children": [
            {
                "data": "3:50456",
                "leaf": "clip",
                "type": "Leaf"
            },
            {
                "data": "0:50456",
                "leaf": "clip",
                "type": "Leaf"
            }
        ],
        "type": "AVSplit"
    },
    {
        "children": [
            {
                "data": "0:30986",
                "leaf": "clip",
                "type": "Leaf"
            },
            {
                "data": "3:30986",
                "leaf": "clip",
                "type": "Leaf"
            }
        ],
        "type": "AVSplit"
    },
    {
        "children": [
            {
                "data": "0:29887",
                "leaf": "clip",
                "type": "Leaf"
            },
            {
                "data": "3:29887",
                "leaf": "clip",
                "type": "Leaf"
            }
        ],
        "type": "AVSplit"
    },
    {
        "children": [
            {
                "data": "0:26851",
                "leaf": "clip",
                "type": "Leaf"
            },
            {
                "data": "3:26851",
                "leaf": "clip",
                "type": "Leaf"
            }
        ],
        "type": "AVSplit"
    },
    {
        "children": [
            {
                "data": "3:12800",
                "leaf": "clip",
                "type": "Leaf"
            },
            {
                "data": "0:12800",
                "leaf": "clip",
                "type": "Leaf"
            }
        ],
        "type": "AVSplit"
    },
    {
        "children": [
            {
                "data": "3:2476",
                "leaf": "clip",
                "type": "Leaf"
            },
            {
                "data": "0:2476",
                "leaf": "clip",
                "type": "Leaf"
            }
        ],
        "type": "AVSplit"
    },
    {
        "children": [
            {
                "data": "0:26642",
                "leaf": "clip",
                "type": "Leaf"
            },
            {
                "data": "3:26642",
                "leaf": "clip",
                "type": "Leaf"
            }
        ],
        "type": "AVSplit"
    },
    {
        "children": [
            {
                "data": "0:32574",
                "leaf": "clip",
                "type": "Leaf"
            },
            {
                "data": "3:32574",
                "leaf": "clip",
                "type": "Leaf"
            }
        ],
        "type": "AVSplit"
    },
    {
        "children": [
            {
                "data": "3:41436",
                "leaf": "clip",
                "type": "Leaf"
            },
            {
                "data": "0:41436",
                "leaf": "clip",
                "type": "Leaf"
            }
        ],
        "type": "AVSplit"
    },
    {
        "children": [
            {
                "data": "0:30693",
                "leaf": "clip",
                "type": "Leaf"
            },
            {
                "data": "3:30693",
                "leaf": "clip",
                "type": "Leaf"
            }
        ],
        "type": "AVSplit"
    },
    {
        "children": [
            {
                "data": "3:47590",
                "leaf": "clip",
                "type": "Leaf"
            },
            {
                "data": "0:47590",
                "leaf": "clip",
                "type": "Leaf"
            }
        ],
        "type": "AVSplit"
    },
    {
        "children": [
            {
                "data": "3:39250",
                "leaf": "clip",
                "type": "Leaf"
            },
            {
                "data": "0:39250",
                "leaf": "clip",
                "type": "Leaf"
            }
        ],
        "type": "AVSplit"
    },
    {
        "children": [
            {
                "data": "3:51153",
                "leaf": "clip",
                "type": "Leaf"
            },
            {
                "data": "0:51153",
                "leaf": "clip",
                "type": "Leaf"
            }
        ],
        "type": "AVSplit"
    },
    {
        "children": [
            {
                "data": "3:9661",
                "leaf": "clip",
                "type": "Leaf"
            },
            {
                "data": "0:9661",
                "leaf": "clip",
                "type": "Leaf"
            }
        ],
        "type": "AVSplit"
    },
    {
        "children": [
            {
                "data": "3:41969",
                "leaf": "clip",
                "type": "Leaf"
            },
            {
                "data": "0:41969",
                "leaf": "clip",
                "type": "Leaf"
            }
        ],
        "type": "AVSplit"
    },
    {
        "children": [
            {
                "data": "3:18195",
                "leaf": "clip",
                "type": "Leaf"
            },
            {
                "data": "0:18195",
                "leaf": "clip",
                "type": "Leaf"
            }
        ],
        "type": "AVSplit"
    },
    {
        "children": [
            {
                "data": "3:7404",
                "leaf": "clip",
                "type": "Leaf"
            },
            {
                "data": "0:7404",
                "leaf": "clip",
                "type": "Leaf"
            }
        ],
        "type": "AVSplit"
    },
    {
        "children": [
            {
                "data": "3:37799",
                "leaf": "clip",
                "type": "Leaf"
            },
            {
                "data": "0:37799",
                "leaf": "clip",
                "type": "Leaf"
            }
        ],
        "type": "AVSplit"
    },
    {
        "children": [
            {
                "data": "3:14821",
                "leaf": "clip",
                "type": "Leaf"
            },
            {
                "data": "0:14821",
                "leaf": "clip",
                "type": "Leaf"
            }
        ],
        "type": "AVSplit"
    },
    {
        "children": [
            {
                "data": "3:20811",
                "leaf": "clip",
                "type": "Leaf"
            },
            {
                "data": "0:20811",
                "leaf": "clip",
                "type": "Leaf"
            }
        ],
        "type": "AVSplit"
    },
    {
        "children": [
            {
                "data": "3:13505",
                "leaf": "clip",
                "type": "Leaf"
            },
            {
                "data": "0:13505",
                "leaf": "clip",
                "type": "Leaf"
            }
        ],
        "type": "AVSplit"
    },
    {
        "children": [
            {
                "data": "0:27348",
                "leaf": "clip",
                "type": "Leaf"
            },
            {
                "data": "3:27348",
                "leaf": "clip",
                "type": "Leaf"
            }
        ],
        "type": "AVSplit"
    },
    {
        "children": [
            {
                "data": "3:20367",
                "leaf": "clip",
                "type": "Leaf"
            },
            {
                "data": "0:20367",
                "leaf": "clip",
                "type": "Leaf"
            }
        ],
        "type": "AVSplit"
    },
    {
        "children": [
            {
                "data": "2:58086",
                "leaf": "clip",
                "type": "Leaf"
            },
            {
                "data": "1:58086",
                "leaf": "clip",
                "type": "Leaf"
            }
        ],
        "type": "AVSplit"
    },
    {
        "children": [
            {
                "data": "3:37856",
                "leaf": "clip",
                "type": "Leaf"
            },
            {
                "data": "0:37856",
                "leaf": "clip",
                "type": "Leaf"
            }
        ],
        "type": "AVSplit"
    },
    {
        "children": [
            {
                "data": "1:56555",
                "leaf": "clip",
                "type": "Leaf"
            },
            {
                "data": "2:56555",
                "leaf": "clip",
                "type": "Leaf"
            }
        ],
        "type": "AVSplit"
    },
    {
        "children": [
            {
                "data": "3:21097",
                "leaf": "clip",
                "type": "Leaf"
            },
            {
                "data": "0:21097",
                "leaf": "clip",
                "type": "Leaf"
            }
        ],
        "type": "AVSplit"
    },
    {
        "children": [
            {
                "data": "3:20081",
                "leaf": "clip",
                "type": "Leaf"
            },
            {
                "data": "0:20081",
                "leaf": "clip",
                "type": "Leaf"
            }
        ],
        "type": "AVSplit"
    },
    {
        "children": [
            {
                "data": "3:13679",
                "leaf": "clip",
                "type": "Leaf"
            },
            {
                "data": "0:13679",
                "leaf": "clip",
                "type": "Leaf"
            }
        ],
        "type": "AVSplit"
    },
    {
        "children": [
            {
                "data": "3:34005",
                "leaf": "clip",
                "type": "Leaf"
            },
            {
                "data": "0:34005",
                "leaf": "clip",
                "type": "Leaf"
            }
        ],
        "type": "AVSplit"
    },
    {
        "children": [
            {
                "data": "0:0",
                "leaf": "clip",
                "type": "Leaf"
            },
            {
                "data": "3:0",
                "leaf": "clip",
                "type": "Leaf"
            }
        ],
        "type": "AVSplit"
    },
    {
        "children": [
            {
                "data": "1:55485",
                "leaf": "clip",
                "type": "Leaf"
            },
            {
                "data": "2:55485",
                "leaf": "clip",
                "type": "Leaf"
            }
        ],
        "type": "AVSplit"
    },
    {
        "children": [
            {
                "data": "3:13233",
                "leaf": "clip",
                "type": "Leaf"
            },
            {
                "data": "0:13233",
                "leaf": "clip",
                "type": "Leaf"
            }
        ],
        "type": "AVSplit"
    },
    {
        "children": [
            {
                "data": "3:18361",
                "leaf": "clip",
                "type": "Leaf"
            },
            {
                "data": "0:18361",
                "leaf": "clip",
                "type": "Leaf"
            }
        ],
        "type": "AVSplit"
    },
    {
        "children": [
            {
                "data": "3:20662",
                "leaf": "clip",
                "type": "Leaf"
            },
            {
                "data": "0:20662",
                "leaf": "clip",
                "type": "Leaf"
            }
        ],
        "type": "AVSplit"
    },
    {
        "children": [
            {
                "data": "0:27743",
                "leaf": "clip",
                "type": "Leaf"
            },
            {
                "data": "3:27743",
                "leaf": "clip",
                "type": "Leaf"
            }
        ],
        "type": "AVSplit"
    },
    {
        "children": [
            {
                "data": "3:2935",
                "leaf": "clip",
                "type": "Leaf"
            },
            {
                "data": "0:2935",
                "leaf": "clip",
                "type": "Leaf"
            }
        ],
        "type": "AVSplit"
    },
    {
        "children": [
            {
                "data": "3:14281",
                "leaf": "clip",
                "type": "Leaf"
            },
            {
                "data": "0:14281",
                "leaf": "clip",
                "type": "Leaf"
            }
        ],
        "type": "AVSplit"
    },
    {
        "children": [
            {
                "data": "3:13358",
                "leaf": "clip",
                "type": "Leaf"
            },
            {
                "data": "0:13358",
                "leaf": "clip",
                "type": "Leaf"
            }
        ],
        "type": "AVSplit"
    },
    {
        "children": [
            {
                "data": "0:23412",
                "leaf": "clip",
                "type": "Leaf"
            },
            {
                "data": "3:23412",
                "leaf": "clip",
                "type": "Leaf"
            }
        ],
        "type": "AVSplit"
    },
    {
        "children": [
            {
                "data": "3:4096",
                "leaf": "clip",
                "type": "Leaf"
            },
            {
                "data": "0:4096",
                "leaf": "clip",
                "type": "Leaf"
            }
        ],
        "type": "AVSplit"
    },
    {
        "children": [
            {
                "data": "3:51156",
                "leaf": "clip",
                "type": "Leaf"
            },
            {
                "data": "0:51156",
                "leaf": "clip",
                "type": "Leaf"
            }
        ],
        "type": "AVSplit"
    },
    {
        "children": [
            {
                "data": "0:28211",
                "leaf": "clip",
                "type": "Leaf"
            },
            {
                "data": "3:28211",
                "leaf": "clip",
                "type": "Leaf"
            }
        ],
        "type": "AVSplit"
    },
    {
        "children": [
            {
                "data": "3:5750",
                "leaf": "clip",
                "type": "Leaf"
            },
            {
                "data": "0:5750",
                "leaf": "clip",
                "type": "Leaf"
            }
        ],
        "type": "AVSplit"
    },
    {
        "children": [
            {
                "data": "3:46155",
                "leaf": "clip",
                "type": "Leaf"
            },
            {
                "data": "0:46155",
                "leaf": "clip",
                "type": "Leaf"
            }
        ],
        "type": "AVSplit"
    },
    {
        "children": [
            {
                "data": "3:6459",
                "leaf": "clip",
                "type": "Leaf"
            },
            {
                "data": "0:6459",
                "leaf": "clip",
                "type": "Leaf"
            }
        ],
        "type": "AVSplit"
    },
    {
        "children": [
            {
                "data": "3:8972",
                "leaf": "clip",
                "type": "Leaf"
            },
            {
                "data": "0:8972",
                "leaf": "clip",
                "type": "Leaf"
            }
        ],
        "type": "AVSplit"
    },
    {
        "children": [
            {
                "data": "3:25393",
                "leaf": "clip",
                "type": "Leaf"
            },
            {
                "data": "0:25393",
                "leaf": "clip",
                "type": "Leaf"
            }
        ],
        "type": "AVSplit"
    },
    {
        "children": [
            {
                "data": "3:40617",
                "leaf": "clip",
                "type": "Leaf"
            },
            {
                "data": "0:40617",
                "leaf": "clip",
                "type": "Leaf"
            }
        ],
        "type": "AVSplit"
    },
    {
        "children": [
            {
                "data": "2:55322",
                "leaf": "clip",
                "type": "Leaf"
            },
            {
                "data": "1:55322",
                "leaf": "clip",
                "type": "Leaf"
            }
        ],
        "type": "AVSplit"
    },
    {
        "children": [
            {
                "data": "3:17465",
                "leaf": "clip",
                "type": "Leaf"
            },
            {
                "data": "0:17465",
                "leaf": "clip",
                "type": "Leaf"
            }
        ],
        "type": "AVSplit"
    },
    {
        "children": [
            {
                "data": "3:6969",
                "leaf": "clip",
                "type": "Leaf"
            },
            {
                "data": "0:6969",
                "leaf": "clip",
                "type": "Leaf"
            }
        ],
        "type": "AVSplit"
    },
    {
        "children": [
            {
                "data": "3:38545",
                "leaf": "clip",
                "type": "Leaf"
            },
            {
                "data": "0:38545",
                "leaf": "clip",
                "type": "Leaf"
            }
        ],
        "type": "AVSplit"
    },
    {
        "children": [
            {
                "data": "3:315",
                "leaf": "clip",
                "type": "Leaf"
            },
            {
                "data": "0:315",
                "leaf": "clip",
                "type": "Leaf"
            }
        ],
        "type": "AVSplit"
    },
    {
        "children": [
            {
                "data": "0:22141",
                "leaf": "clip",
                "type": "Leaf"
            },
            {
                "data": "3:22141",
                "leaf": "clip",
                "type": "Leaf"
            }
        ],
        "type": "AVSplit"
    },
    {
        "children": [
            {
                "data": "3:459",
                "leaf": "clip",
                "type": "Leaf"
            },
            {
                "data": "0:459",
                "leaf": "clip",
                "type": "Leaf"
            }
        ],
        "type": "AVSplit"
    },
    {
        "children": [
            {
                "data": "3:25677",
                "leaf": "clip",
                "type": "Leaf"
            },
            {
                "data": "0:25677",
                "leaf": "clip",
                "type": "Leaf"
            }
        ],
        "type": "AVSplit"
    },
    {
        "children": [
            {
                "data": "0:32794",
                "leaf": "clip",
                "type": "Leaf"
            },
            {
                "data": "3:32794",
                "leaf": "clip",
                "type": "Leaf"
            }
        ],
        "type": "AVSplit"
    },
    {
        "children": [
            {
                "data": "3:36945",
                "leaf": "clip",
                "type": "Leaf"
            },
            {
                "data": "0:36945",
                "leaf": "clip",
                "type": "Leaf"
            }
        ],
        "type": "AVSplit"
    },
    {
        "children": [
            {
                "data": "0:22849",
                "leaf": "clip",
                "type": "Leaf"
            },
            {
                "data": "3:22849",
                "leaf": "clip",
                "type": "Leaf"
            }
        ],
        "type": "AVSplit"
    },
    {
        "children": [
            {
                "data": "3:2816",
                "leaf": "clip",
                "type": "Leaf"
            },
            {
                "data": "0:2816",
                "leaf": "clip",
                "type": "Leaf"
            }
        ],
        "type": "AVSplit"
    },
    {
        "children": [
            {
                "data": "3:1444",
                "leaf": "clip",
                "type": "Leaf"
            },
            {
                "data": "0:1444",
                "leaf": "clip",
                "type": "Leaf"
            }
        ],
        "type": "AVSplit"
    },
    {
        "children": [
            {
                "data": "0:22300",
                "leaf": "clip",
                "type": "Leaf"
            },
            {
                "data": "3:22300",
                "leaf": "clip",
                "type": "Leaf"
            }
        ],
        "type": "AVSplit"
    },
    {
        "children": [
            {
                "data": "0:23640",
                "leaf": "clip",
                "type": "Leaf"
            },
            {
                "data": "3:23640",
                "leaf": "clip",
                "type": "Leaf"
            }
        ],
        "type": "AVSplit"
    },
    {
        "children": [
            {
                "data": "3:5150",
                "leaf": "clip",
                "type": "Leaf"
            },
            {
                "data": "0:5150",
                "leaf": "clip",
                "type": "Leaf"
            }
        ],
        "type": "AVSplit"
    },
    {
        "children": [
            {
                "data": "3:10706",
                "leaf": "clip",
                "type": "Leaf"
            },
            {
                "data": "0:10706",
                "leaf": "clip",
                "type": "Leaf"
            }
        ],
        "type": "AVSplit"
    },
    {
        "children": [
            {
                "data": "0:29106",
                "leaf": "clip",
                "type": "Leaf"
            },
            {
                "data": "3:29106",
                "leaf": "clip",
                "type": "Leaf"
            }
        ],
        "type": "AVSplit"
    },
    {
        "children": [
            {
                "data": "3:4361",
                "leaf": "clip",
                "type": "Leaf"
            },
            {
                "data": "0:4361",
                "leaf": "clip",
                "type": "Leaf"
            }
        ],
        "type": "AVSplit"
    },
    {
        "children": [
            {
                "data": "3:17250",
                "leaf": "clip",
                "type": "Leaf"
            },
            {
                "data": "0:17250",
                "leaf": "clip",
                "type": "Leaf"
            }
        ],
        "type": "AVSplit"
    },
    {
        "children": [
            {
                "data": "3:37508",
                "leaf": "clip",
                "type": "Leaf"
            },
            {
                "data": "0:37508",
                "leaf": "clip",
                "type": "Leaf"
            }
        ],
        "type": "AVSplit"
    },
    {
        "children": [
            {
                "data": "3:33579",
                "leaf": "clip",
                "type": "Leaf"
            },
            {
                "data": "0:33579",
                "leaf": "clip",
                "type": "Leaf"
            }
        ],
        "type": "AVSplit"
    },
    {
        "children": [
            {
                "data": "3:16342",
                "leaf": "clip",
                "type": "Leaf"
            },
            {
                "data": "0:16342",
                "leaf": "clip",
                "type": "Leaf"
            }
        ],
        "type": "AVSplit"
    },
    {
        "children": [
            {
                "data": "3:52205",
                "leaf": "clip",
                "type": "Leaf"
            },
            {
                "data": "0:52205",
                "leaf": "clip",
                "type": "Leaf"
            }
        ],
        "type": "AVSplit"
    },
    {
        "children": [
            {
                "data": "3:2961",
                "leaf": "clip",
                "type": "Leaf"
            },
            {
                "data": "0:2961",
                "leaf": "clip",
                "type": "Leaf"
            }
        ],
        "type": "AVSplit"
    },
    {
        "children": [
            {
                "data": "3:21692",
                "leaf": "clip",
                "type": "Leaf"
            },
            {
                "data": "0:21692",
                "leaf": "clip",
                "type": "Leaf"
            }
        ],
        "type": "AVSplit"
    },
    {
        "children": [
            {
                "data": "0:22571",
                "leaf": "clip",
                "type": "Leaf"
            },
            {
                "data": "3:22571",
                "leaf": "clip",
                "type": "Leaf"
            }
        ],
        "type": "AVSplit"
    },
    {
        "children": [
            {
                "data": "3:14955",
                "leaf": "clip",
                "type": "Leaf"
            },
            {
                "data": "0:14955",
                "leaf": "clip",
                "type": "Leaf"
            }
        ],
        "type": "AVSplit"
    },
    {
        "children": [
            {
                "data": "3:52244",
                "leaf": "clip",
                "type": "Leaf"
            },
            {
                "data": "0:52244",
                "leaf": "clip",
                "type": "Leaf"
            }
        ],
        "type": "AVSplit"
    },
    {
        "children": [
            {
                "data": "0:28682",
                "leaf": "clip",
                "type": "Leaf"
            },
            {
                "data": "3:28682",
                "leaf": "clip",
                "type": "Leaf"
            }
        ],
        "type": "AVSplit"
    },
    {
        "children": [
            {
                "data": "3:10469",
                "leaf": "clip",
                "type": "Leaf"
            },
            {
                "data": "0:10469",
                "leaf": "clip",
                "type": "Leaf"
            }
        ],
        "type": "AVSplit"
    },
    {
        "children": [
            {
                "data": "3:52599",
                "leaf": "clip",
                "type": "Leaf"
            },
            {
                "data": "0:52599",
                "leaf": "clip",
                "type": "Leaf"
            }
        ],
        "type": "AVSplit"
    },
    {
        "children": [
            {
                "data": "0:28079",
                "leaf": "clip",
                "type": "Leaf"
            },
            {
                "data": "3:28079",
                "leaf": "clip",
                "type": "Leaf"
            }
        ],
        "type": "AVSplit"
    },
    {
        "children": [
            {
                "data": "3:37688",
                "leaf": "clip",
                "type": "Leaf"
            },
            {
                "data": "0:37688",
                "leaf": "clip",
                "type": "Leaf"
            }
        ],
        "type": "AVSplit"
    },
    {
        "children": [
            {
                "data": "3:1243",
                "leaf": "clip",
                "type": "Leaf"
            },
            {
                "data": "0:1243",
                "leaf": "clip",
                "type": "Leaf"
            }
        ],
        "type": "AVSplit"
    },
    {
        "children": [
            {
                "data": "0:23346",
                "leaf": "clip",
                "type": "Leaf"
            },
            {
                "data": "3:23346",
                "leaf": "clip",
                "type": "Leaf"
            }
        ],
        "type": "AVSplit"
    },
    {
        "children": [
            {
                "data": "3:33404",
                "leaf": "clip",
                "type": "Leaf"
            },
            {
                "data": "0:33404",
                "leaf": "clip",
                "type": "Leaf"
            }
        ],
        "type": "AVSplit"
    },
    {
        "children": [
            {
                "data": "3:18796",
                "leaf": "clip",
                "type": "Leaf"
            },
            {
                "data": "0:18796",
                "leaf": "clip",
                "type": "Leaf"
            }
        ],
        "type": "AVSplit"
    },
    {
        "children": [
            {
                "data": "3:16857",
                "leaf": "clip",
                "type": "Leaf"
            },
            {
                "data": "0:16857",
                "leaf": "clip",
                "type": "Leaf"
            }
        ],
        "type": "AVSplit"
    },
    {
        "children": [
            {
                "data": "0:58622",
                "leaf": "clip",
                "type": "Leaf"
            },
            {
                "data": "3:58622",
                "leaf": "clip",
                "type": "Leaf"
            }
        ],
        "type": "AVSplit"
    },
    {
        "children": [
            {
                "data": "3:49231",
                "leaf": "clip",
                "type": "Leaf"
            },
            {
                "data": "0:49231",
                "leaf": "clip",
                "type": "Leaf"
            }
        ],
        "type": "AVSplit"
    },
    {
        "children": [
            {
                "data": "3:59165",
                "leaf": "clip",
                "type": "Leaf"
            },
            {
                "data": "0:59165",
                "leaf": "clip",
                "type": "Leaf"
            }
        ],
        "type": "AVSplit"
    },
    {
        "children": [
            {
                "data": "3:12592",
                "leaf": "clip",
                "type": "Leaf"
            },
            {
                "data": "0:12592",
                "leaf": "clip",
                "type": "Leaf"
            }
        ],
        "type": "AVSplit"
    },
    {
        "children": [
            {
                "data": "3:60454",
                "leaf": "clip",
                "type": "Leaf"
            },
            {
                "data": "0:60454",
                "leaf": "clip",
                "type": "Leaf"
            }
        ],
        "type": "AVSplit"
    },
    {
        "children": [
            {
                "data": "3:40697",
                "leaf": "clip",
                "type": "Leaf"
            },
            {
                "data": "0:40697",
                "leaf": "clip",
                "type": "Leaf"
            }
        ],
        "type": "AVSplit"
    },
    {
        "children": [
            {
                "data": "3:62772",
                "leaf": "clip",
                "type": "Leaf"
            },
            {
                "data": "0:62772",
                "leaf": "clip",
                "type": "Leaf"
            }
        ],
        "type": "AVSplit"
    },
    {
        "children": [
            {
                "data": "3:49515",
                "leaf": "clip",
                "type": "Leaf"
            },
            {
                "data": "0:49515",
                "leaf": "clip",
                "type": "Leaf"
            }
        ],
        "type": "AVSplit"
    },
    {
        "children": [
            {
                "data": "3:63017",
                "leaf": "clip",
                "type": "Leaf"
            },
            {
                "data": "0:63017",
                "leaf": "clip",
                "type": "Leaf"
            }
        ],
        "type": "AVSplit"
    },
    {
        "children": [
            {
                "data": "3:12220",
                "leaf": "clip",
                "type": "Leaf"
            },
            {
                "data": "0:12220",
                "leaf": "clip",
                "type": "Leaf"
            }
        ],
        "type": "AVSplit"
    },
    {
        "children": [
            {
                "data": "3:63128",
                "leaf": "clip",
                "type": "Leaf"
            },
            {
                "data": "0:63128",
                "leaf": "clip",
                "type": "Leaf"
            }
        ],
        "type": "AVSplit"
    },
    {
        "children": [
            {
                "data": "3:10868",
                "leaf": "clip",
                "type": "Leaf"
            },
            {
                "data": "0:10868",
                "leaf": "clip",
                "type": "Leaf"
            }
        ],
        "type": "AVSplit"
    }
]
</property>
  <property name="kdenlive:docproperties.guides">[
    {
        "comment": "guide",
        "pos": 257,
        "type": 0
    },
    {
        "comment": "guide",
        "pos": 55400,
        "type": 0
    },
    {
        "comment": "guide",
        "pos": 66549,
        "type": 0
    }
]
</property>
  <property name="kdenlive:docproperties.renderaudioquality">192</property>
  <property name="kdenlive:docproperties.rendercategory">Generic (HD for web, mobile devices...)</property>
  <property name="kdenlive:docproperties.renderendguide">2</property>
  <property name="kdenlive:docproperties.renderexportaudio">0</property>
  <property name="kdenlive:docproperties.renderfield">0</property>
  <property name="kdenlive:docproperties.renderguide">1</property>
  <property name="kdenlive:docproperties.renderplay">0</property>
  <property name="kdenlive:docproperties.renderprofile">MP4 - the dominating format (H264/AAC)</property>
  <property name="kdenlive:docproperties.renderquality">23</property>
  <property name="kdenlive:docproperties.renderratio">1</property>
  <property name="kdenlive:docproperties.renderrescale">0</property>
  <property name="kdenlive:docproperties.renderrescaleheight">540</property>
  <property name="kdenlive:docproperties.renderrescalewidth">960</property>
  <property name="kdenlive:docproperties.renderscanning">0</property>
  <property name="kdenlive:docproperties.renderspeed">2</property>
  <property name="kdenlive:docproperties.renderstartguide">0</property>
  <property name="kdenlive:docproperties.rendertcoverlay">0</property>
  <property name="kdenlive:docproperties.rendertctype">0</property>
  <property name="kdenlive:docproperties.rendertwopass">0</property>
  <property name="kdenlive:docproperties.renderurl">video_cut.mp4</property>
  <property name="kdenlive:docproperties.renderzone">0</property>
  <property name="xml_retain">1</property>
  <entry producer="producer0" in="00:00:00,000" out="00:53:11,733"/>
  <entry producer="producer1" in="00:00:00,000" out="00:00:46,200"/>
  <entry producer="producer2" in="00:00:00,000" out="00:02:41,567"/>
 </playlist>
 <producer id="black_track" in="00:00:00,000" out="00:53:38,300">
  <property name="length">2147483647</property>
  <property name="eof">continue</property>
  <property name="resource">black</property>
  <property name="aspect_ratio">1</property>
  <property name="mlt_service">color</property>
  <property name="mlt_image_format">rgb24a</property>
  <property name="set.test_audio">0</property>
 </producer>
 <producer id="producer3" in="00:00:00,000" out="00:53:11,733">
  <property name="length">95753</property>
  <property name="eof">pause</property>
  <property name="resource">presentation_video.mp4</property>
  <property name="audio_index">0</property>
  <property name="video_index">1</property>
  <property name="mute_on_pause">0</property>
  <property name="mlt_service">avformat-novalidate</property>
  <property name="seekable">1</property>
  <property name="aspect_ratio">1</property>
  <property name="kdenlive:clipname"/>
  <property name="kdenlive:folderid">-1</property>
  <property name="kdenlive:id">2</property>
  <property name="kdenlive:file_size">167032913</property>
  <property name="kdenlive:file_hash">6e17c157ae37769ad71074e34243beb5</property>
  <property name="global_feed">1</property>
  <property name="xml">was here</property>
  <property name="meta.media.nb_streams">2</property>
  <property name="meta.media.0.stream.type">audio</property>
  <property name="meta.media.0.codec.sample_fmt">fltp</property>
  <property name="meta.media.0.codec.sample_rate">32000</property>
  <property name="meta.media.0.codec.channels">1</property>
  <property name="meta.media.0.codec.name">aac</property>
  <property name="meta.media.0.codec.long_name">AAC (Advanced Audio Coding)</property>
  <property name="meta.media.0.codec.bit_rate">126250</property>
  <property name="meta.attr.0.stream.creation_time.markup">2021-03-05T12:12:41.000000Z</property>
  <property name="meta.attr.0.stream.handler_name.markup">AAC audio</property>
  <property name="meta.media.1.stream.type">video</property>
  <property name="meta.media.1.stream.frame_rate">25</property>
  <property name="meta.media.1.stream.sample_aspect_ratio">0</property>
  <property name="meta.media.1.codec.width">1920</property>
  <property name="meta.media.1.codec.height">1080</property>
  <property name="meta.media.1.codec.rotate">0</property>
  <property name="meta.media.1.codec.frame_rate">30000</property>
  <property name="meta.media.1.codec.pix_fmt">yuv420p</property>
  <property name="meta.media.1.codec.sample_aspect_ratio">0</property>
  <property name="meta.media.1.codec.colorspace">709</property>
  <property name="meta.media.1.codec.name">h264</property>
  <property name="meta.media.1.codec.long_name">H.264 / AVC / MPEG-4 AVC / MPEG-4 part 10</property>
  <property name="meta.media.1.codec.bit_rate">290275</property>
  <property name="meta.attr.1.stream.creation_time.markup">2021-03-05T12:12:41.000000Z</property>
  <property name="meta.attr.1.stream.handler_name.markup">H.264/AVC video</property>
  <property name="meta.attr.1.stream.encoder.markup">AVC Coding</property>
  <property name="meta.attr.major_brand.markup">mp42</property>
  <property name="meta.attr.minor_version.markup">0</property>
  <property name="meta.attr.compatible_brands.markup">isommp42</property>
  <property name="meta.attr.creation_time.markup">2021-03-05T12:12:41.000000Z</property>
  <property name="meta.media.sample_aspect_num">1</property>
  <property name="meta.media.sample_aspect_den">1</property>
  <property name="meta.media.frame_rate_num">25</property>
  <property name="meta.media.frame_rate_den">1</property>
  <property name="meta.media.colorspace">709</property>
  <property name="meta.media.color_trc">2</property>
  <property name="meta.media.width">1920</property>
  <property name="meta.media.height">1080</property>
  <property name="meta.media.color_range">mpeg</property>
  <property name="meta.media.top_field_first">0</property>
  <property name="meta.media.progressive">1</property>
  <property name="set.test_audio">0</property>
  <property name="set.test_image">1</property>
 </producer>
 <playlist id="playlist0">
  <property name="kdenlive:audio_track">1</property>
  <property name="kdenlive:activeeffect">0</property>
  <entry producer="producer3" in="00:00:04,800" out="00:00:04,800">
   <property name="kdenlive:id">2</property>
  </entry>
  <entry producer="producer3" in="00:03:18,433" out="00:03:23,467">
   <property name="kdenlive:id">2</property>
  </entry>
  <entry producer="producer3" in="00:03:23,867" out="00:03:29,233">
   <property name="kdenlive:id">2</property>
  </entry>
  <entry producer="producer3" in="00:03:41,667" out="00:03:46,433">
   <property name="kdenlive:id">2</property>
  </entry>
  <entry producer="producer3" in="00:03:46,567" out="00:04:12,667">
   <property name="kdenlive:id">2</property>
  </entry>
  <entry producer="producer3" in="00:04:14,433" out="00:04:21,100">
   <property name="kdenlive:id">2</property>
  </entry>
  <entry producer="producer3" in="00:04:21,767" out="00:04:29,300">
   <property name="kdenlive:id">2</property>
  </entry>
  <entry producer="producer3" in="00:04:30,333" out="00:04:50,067">
   <property name="kdenlive:id">2</property>
  </entry>
  <entry producer="producer3" in="00:04:50,967" out="00:04:58,000">
   <property name="kdenlive:id">2</property>
  </entry>
  <entry producer="producer3" in="00:05:06,733" out="00:05:18,033">
   <property name="kdenlive:id">2</property>
  </entry>
  <entry producer="producer3" in="00:05:18,700" out="00:05:22,633">
   <property name="kdenlive:id">2</property>
  </entry>
  <entry producer="producer3" in="00:05:30,333" out="00:05:31,167">
   <property name="kdenlive:id">2</property>
  </entry>
  <entry producer="producer3" in="00:05:41,767" out="00:06:19,567">
   <property name="kdenlive:id">2</property>
  </entry>
  <entry producer="producer3" in="00:06:22,467" out="00:06:31,267">
   <property name="kdenlive:id">2</property>
  </entry>
  <entry producer="producer3" in="00:06:31,733" out="00:06:58,000">
   <property name="kdenlive:id">2</property>
  </entry>
  <entry producer="producer3" in="00:07:07,433" out="00:07:27,400">
   <property name="kdenlive:id">2</property>
  </entry>
  <entry producer="producer3" in="00:07:42,700" out="00:07:59,900">
   <property name="kdenlive:id">2</property>
  </entry>
  <entry producer="producer3" in="00:08:07,933" out="00:08:14,300">
   <property name="kdenlive:id">2</property>
  </entry>
  <entry producer="producer3" in="00:08:15,267" out="00:08:21,167">
   <property name="kdenlive:id">2</property>
  </entry>
  <entry producer="producer3" in="00:08:27,667" out="00:08:38,700">
   <property name="kdenlive:id">2</property>
  </entry>
  <entry producer="producer3" in="00:08:39,233" out="00:08:47,967">
   <property name="kdenlive:id">2</property>
  </entry>
  <entry producer="producer3" in="00:08:48,367" out="00:08:54,067">
   <property name="kdenlive:id">2</property>
  </entry>
  <entry producer="producer3" in="00:08:54,567" out="00:08:57,567">
   <property name="kdenlive:id">2</property>
  </entry>
  <entry producer="producer3" in="00:08:58,600" out="00:09:08,000">
   <property name="kdenlive:id">2</property>
  </entry>
  <entry producer="producer3" in="00:09:08,600" out="00:09:24,767">
   <property name="kdenlive:id">2</property>
  </entry>
  <entry producer="producer3" in="00:09:25,233" out="00:09:33,867">
   <property name="kdenlive:id">2</property>
  </entry>
  <entry producer="producer3" in="00:09:45,133" out="00:10:00,033">
   <property name="kdenlive:id">2</property>
  </entry>
  <entry producer="producer3" in="00:10:00,533" out="00:10:23,467">
   <property name="kdenlive:id">2</property>
  </entry>
  <entry producer="producer3" in="00:10:24,267" out="00:10:44,600">
   <property name="kdenlive:id">2</property>
  </entry>
  <entry producer="producer3" in="00:10:45,400" out="00:10:51,933">
   <property name="kdenlive:id">2</property>
  </entry>
  <entry producer="producer3" in="00:10:52,767" out="00:11:00,633">
   <property name="kdenlive:id">2</property>
  </entry>
  <entry producer="producer3" in="00:11:01,833" out="00:11:07,200">
   <property name="kdenlive:id">2</property>
  </entry>
  <entry producer="producer3" in="00:11:11,333" out="00:11:18,200">
   <property name="kdenlive:id">2</property>
  </entry>
  <entry producer="producer3" in="00:11:19,267" out="00:11:38,767">
   <property name="kdenlive:id">2</property>
  </entry>
  <entry producer="producer3" in="00:12:03,900" out="00:12:22,500">
   <property name="kdenlive:id">2</property>
  </entry>
  <entry producer="producer3" in="00:12:23,767" out="00:12:36,133">
   <property name="kdenlive:id">2</property>
  </entry>
  <entry producer="producer3" in="00:12:47,533" out="00:12:54,433">
   <property name="kdenlive:id">2</property>
  </entry>
  <entry producer="producer3" in="00:12:55,067" out="00:13:05,300">
   <property name="kdenlive:id">2</property>
  </entry>
  <entry producer="producer3" in="00:13:06,033" out="00:13:10,167">
   <property name="kdenlive:id">2</property>
  </entry>
  <entry producer="producer3" in="00:13:10,933" out="00:13:15,067">
   <property name="kdenlive:id">2</property>
  </entry>
  <entry producer="producer3" in="00:13:16,033" out="00:13:20,900">
   <property name="kdenlive:id">2</property>
  </entry>
  <entry producer="producer3" in="00:13:21,700" out="00:13:27,467">
   <property name="kdenlive:id">2</property>
  </entry>
  <entry producer="producer3" in="00:13:37,900" out="00:13:40,567">
   <property name="kdenlive:id">2</property>
  </entry>
  <entry producer="producer3" in="00:13:41,333" out="00:13:48,467">
   <property name="kdenlive:id">2</property>
  </entry>
  <entry producer="producer3" in="00:13:55,767" out="00:14:05,933">
   <property name="kdenlive:id">2</property>
  </entry>
  <entry producer="producer3" in="00:14:16,600" out="00:14:34,567">
   <property name="kdenlive:id">2</property>
  </entry>
  <entry producer="producer3" in="00:14:35,267" out="00:14:39,700">
   <property name="kdenlive:id">2</property>
  </entry>
  <entry producer="producer3" in="00:14:40,400" out="00:15:02,100">
   <property name="kdenlive:id">2</property>
  </entry>
  <entry producer="producer3" in="00:15:10,133" out="00:15:20,467">
   <property name="kdenlive:id">2</property>
  </entry>
  <entry producer="producer3" in="00:15:20,667" out="00:15:34,767">
   <property name="kdenlive:id">2</property>
  </entry>
  <entry producer="producer3" in="00:15:41,100" out="00:15:41,867">
   <property name="kdenlive:id">2</property>
  </entry>
  <entry producer="producer3" in="00:15:42,033" out="00:15:53,567">
   <property name="kdenlive:id">2</property>
  </entry>
  <entry producer="producer3" in="00:15:55,200" out="00:15:59,967">
   <property name="kdenlive:id">2</property>
  </entry>
  <entry producer="producer3" in="00:16:00,700" out="00:16:10,067">
   <property name="kdenlive:id">2</property>
  </entry>
  <entry producer="producer3" in="00:16:11,033" out="00:16:14,700">
   <property name="kdenlive:id">2</property>
  </entry>
  <entry producer="producer3" in="00:16:21,233" out="00:16:24,600">
   <property name="kdenlive:id">2</property>
  </entry>
  <entry producer="producer3" in="00:16:25,500" out="00:16:29,233">
   <property name="kdenlive:id">2</property>
  </entry>
  <entry producer="producer3" in="00:16:30,367" out="00:16:54,667">
   <property name="kdenlive:id">2</property>
  </entry>
  <entry producer="producer3" in="00:17:04,800" out="00:17:10,300">
   <property name="kdenlive:id">2</property>
  </entry>
  <entry producer="producer3" in="00:18:12,400" out="00:18:26,867">
   <property name="kdenlive:id">2</property>
  </entry>
  <entry producer="producer3" in="00:18:27,500" out="00:18:43,700">
   <property name="kdenlive:id">2</property>
  </entry>
  <entry producer="producer3" in="00:18:44,333" out="00:18:49,567">
   <property name="kdenlive:id">2</property>
  </entry>
  <entry producer="producer3" in="00:18:50,600" out="00:19:01,600">
   <property name="kdenlive:id">2</property>
  </entry>
  <entry producer="producer3" in="00:19:01,967" out="00:19:12,233">
   <property name="kdenlive:id">2</property>
  </entry>
  <entry producer="producer3" in="00:19:13,267" out="00:19:22,767">
   <property name="kdenlive:id">2</property>
  </entry>
  <entry producer="producer3" in="00:19:23,800" out="00:19:33,600">
   <property name="kdenlive:id">2</property>
  </entry>
  <entry producer="producer3" in="00:19:33,933" out="00:19:35,933">
   <property name="kdenlive:id">2</property>
  </entry>
  <entry producer="producer3" in="00:19:36,267" out="00:19:36,567">
   <property name="kdenlive:id">2</property>
  </entry>
  <entry producer="producer3" in="00:19:37,367" out="00:19:39,933">
   <property name="kdenlive:id">2</property>
  </entry>
  <entry producer="producer3" in="00:19:40,633" out="00:19:50,133">
   <property name="kdenlive:id">2</property>
  </entry>
  <entry producer="producer3" in="00:19:58,800" out="00:20:18,600">
   <property name="kdenlive:id">2</property>
  </entry>
  <entry producer="producer3" in="00:20:19,267" out="00:20:34,200">
   <property name="kdenlive:id">2</property>
  </entry>
  <entry producer="producer3" in="00:20:51,367" out="00:20:56,633">
   <property name="kdenlive:id">2</property>
  </entry>
  <entry producer="producer3" in="00:20:57,367" out="00:21:06,367">
   <property name="kdenlive:id">2</property>
  </entry>
  <entry producer="producer3" in="00:21:16,067" out="00:21:25,300">
   <property name="kdenlive:id">2</property>
  </entry>
  <entry producer="producer3" in="00:21:33,200" out="00:21:37,933">
   <property name="kdenlive:id">2</property>
  </entry>
  <entry producer="producer3" in="00:21:38,733" out="00:21:50,500">
   <property name="kdenlive:id">2</property>
  </entry>
  <entry producer="producer3" in="00:21:54,800" out="00:21:56,967">
   <property name="kdenlive:id">2</property>
  </entry>
  <entry producer="producer3" in="00:21:57,767" out="00:22:05,333">
   <property name="kdenlive:id">2</property>
  </entry>
  <entry producer="producer3" in="00:22:06,400" out="00:22:10,767">
   <property name="kdenlive:id">2</property>
  </entry>
  <entry producer="producer3" in="00:22:20,100" out="00:22:28,267">
   <property name="kdenlive:id">2</property>
  </entry>
  <entry producer="producer3" in="00:22:32,600" out="00:22:53,467">
   <property name="kdenlive:id">2</property>
  </entry>
  <entry producer="producer3" in="00:22:54,467" out="00:23:15,567">
   <property name="kdenlive:id">2</property>
  </entry>
  <entry producer="producer3" in="00:23:16,067" out="00:23:19,833">
   <property name="kdenlive:id">2</property>
  </entry>
  <entry producer="producer3" in="00:23:20,333" out="00:23:29,767">
   <property name="kdenlive:id">2</property>
  </entry>
  <entry producer="producer3" in="00:23:30,567" out="00:23:40,433">
   <property name="kdenlive:id">2</property>
  </entry>
  <entry producer="producer3" in="00:23:46,900" out="00:23:53,300">
   <property name="kdenlive:id">2</property>
  </entry>
  <entry producer="producer3" in="00:24:05,300" out="00:24:17,133">
   <property name="kdenlive:id">2</property>
  </entry>
  <entry producer="producer3" in="00:24:18,400" out="00:24:22,333">
   <property name="kdenlive:id">2</property>
  </entry>
  <entry producer="producer3" in="00:24:35,100" out="00:24:42,033">
   <property name="kdenlive:id">2</property>
  </entry>
  <entry producer="producer3" in="00:24:48,700" out="00:25:05,233">
   <property name="kdenlive:id">2</property>
  </entry>
  <entry producer="producer3" in="00:25:06,233" out="00:25:19,367">
   <property name="kdenlive:id">2</property>
  </entry>
  <entry producer="producer3" in="00:25:35,100" out="00:25:46,267">
   <property name="kdenlive:id">2</property>
  </entry>
  <entry producer="producer3" in="00:25:47,133" out="00:25:51,500">
   <property name="kdenlive:id">2</property>
  </entry>
  <entry producer="producer3" in="00:25:58,300" out="00:26:13,967">
   <property name="kdenlive:id">2</property>
  </entry>
  <entry producer="producer3" in="00:26:14,733" out="00:26:28,833">
   <property name="kdenlive:id">2</property>
  </entry>
  <entry producer="producer3" in="00:26:29,600" out="00:26:33,100">
   <property name="kdenlive:id">2</property>
  </entry>
  <entry producer="producer3" in="00:26:33,867" out="00:26:40,133">
   <property name="kdenlive:id">2</property>
  </entry>
  <entry producer="producer3" in="00:26:40,900" out="00:26:49,933">
   <property name="kdenlive:id">2</property>
  </entry>
  <entry producer="producer3" in="00:27:05,900" out="00:27:13,000">
   <property name="kdenlive:id">2</property>
  </entry>
  <entry producer="producer3" in="00:27:19,467" out="00:27:46,300">
   <property name="kdenlive:id">2</property>
  </entry>
  <entry producer="producer3" in="00:27:58,500" out="00:28:08,233">
   <property name="kdenlive:id">2</property>
  </entry>
  <entry producer="producer3" in="00:28:09,100" out="00:28:24,500">
   <property name="kdenlive:id">2</property>
  </entry>
  <entry producer="producer3" in="00:28:25,367" out="00:28:41,333">
   <property name="kdenlive:id">2</property>
  </entry>
  <entry producer="producer3" in="00:28:54,367" out="00:28:57,567">
   <property name="kdenlive:id">2</property>
  </entry>
  <entry producer="producer3" in="00:29:03,100" out="00:29:11,500">
   <property name="kdenlive:id">2</property>
  </entry>
  <entry producer="producer3" in="00:29:18,033" out="00:29:24,900">
   <property name="kdenlive:id">2</property>
  </entry>
  <entry producer="producer3" in="00:29:25,533" out="00:29:28,433">
   <property name="kdenlive:id">2</property>
  </entry>
  <entry producer="producer3" in="00:29:29,600" out="00:29:36,900">
   <property name="kdenlive:id">2</property>
  </entry>
  <entry producer="producer3" in="00:29:37,733" out="00:29:58,033">
   <property name="kdenlive:id">2</property>
  </entry>
  <entry producer="producer3" in="00:30:13,300" out="00:30:19,100">
   <property name="kdenlive:id">2</property>
  </entry>
  <entry producer="producer3" in="00:30:19,833" out="00:30:34,000">
   <property name="kdenlive:id">2</property>
  </entry>
  <entry producer="producer3" in="00:30:39,333" out="00:30:56,333">
   <property name="kdenlive:id">2</property>
  </entry>
  <entry producer="producer3" in="00:30:57,233" out="00:31:47,933">
   <property name="kdenlive:id">2</property>
  </entry>
  <entry producer="producer3" in="00:31:56,933" out="00:32:07,067">
   <property name="kdenlive:id">2</property>
  </entry>
  <entry producer="producer3" in="00:32:07,767" out="00:32:19,200">
   <property name="kdenlive:id">2</property>
  </entry>
  <entry producer="producer3" in="00:32:19,900" out="00:32:28,467">
   <property name="kdenlive:id">2</property>
  </entry>
  <entry producer="producer3" in="00:32:29,167" out="00:32:47,900">
   <property name="kdenlive:id">2</property>
  </entry>
  <entry producer="producer3" in="00:32:48,633" out="00:32:54,600">
   <property name="kdenlive:id">2</property>
  </entry>
  <entry producer="producer3" in="00:32:59,333" out="00:33:03,000">
   <property name="kdenlive:id">2</property>
  </entry>
  <entry producer="producer3" in="00:33:06,633" out="00:33:08,500">
   <property name="kdenlive:id">2</property>
  </entry>
  <entry producer="producer3" in="00:33:11,367" out="00:33:34,300">
   <property name="kdenlive:id">2</property>
  </entry>
  <entry producer="producer3" in="00:33:34,967" out="00:33:47,700">
   <property name="kdenlive:id">2</property>
  </entry>
  <entry producer="producer3" in="00:33:48,367" out="00:33:59,067">
   <property name="kdenlive:id">2</property>
  </entry>
  <entry producer="producer3" in="00:34:13,567" out="00:34:20,300">
   <property name="kdenlive:id">2</property>
  </entry>
  <entry producer="producer3" in="00:34:21,100" out="00:34:44,433">
   <property name="kdenlive:id">2</property>
   <property name="kdenlive:activeeffect">0</property>
   <filter id="filter0">
    <property name="target_loudness">-23</property>
    <property name="window">3</property>
    <property name="max_gain">15</property>
    <property name="min_gain">-15</property>
    <property name="max_rate">3</property>
    <property name="in_loudness">-100.0</property>
    <property name="out_gain">0.0</property>
    <property name="reset_count">0</property>
    <property name="mlt_service">dynamic_loudness</property>
    <property name="kdenlive_id">dynamic_loudness</property>
   </filter>
  </entry>
  <entry producer="producer3" in="00:34:45,333" out="00:34:54,667">
   <property name="kdenlive:id">2</property>
  </entry>
  <entry producer="producer3" in="00:34:55,800" out="00:34:58,267">
   <property name="kdenlive:id">2</property>
  </entry>
  <entry producer="producer3" in="00:34:59,433" out="00:35:02,967">
   <property name="kdenlive:id">2</property>
  </entry>
  <entry producer="producer3" in="00:35:11,367" out="00:35:14,000">
   <property name="kdenlive:id">2</property>
  </entry>
  <entry producer="producer3" in="00:35:14,267" out="00:35:38,867">
   <property name="kdenlive:id">2</property>
  </entry>
  <entry producer="producer3" in="00:35:49,167" out="00:36:06,900">
   <property name="kdenlive:id">2</property>
  </entry>
  <entry producer="producer3" in="00:36:48,633" out="00:37:35,767">
   <property name="kdenlive:id">2</property>
  </entry>
  <entry producer="producer3" in="00:37:37,233" out="00:37:40,233">
   <property name="kdenlive:id">2</property>
  </entry>
  <entry producer="producer3" in="00:37:41,000" out="00:38:43,200">
   <property name="kdenlive:id">2</property>
  </entry>
  <entry producer="producer3" in="00:38:53,867" out="00:39:20,933">
   <property name="kdenlive:id">2</property>
  </entry>
  <entry producer="producer3" in="00:39:24,933" out="00:39:50,500">
   <property name="kdenlive:id">2</property>
  </entry>
  <entry producer="producer3" in="00:39:52,167" out="00:40:14,367">
   <property name="kdenlive:id">2</property>
  </entry>
  <entry producer="producer3" in="00:40:21,000" out="00:41:15,667">
   <property name="kdenlive:id">2</property>
  </entry>
  <entry producer="producer3" in="00:41:16,467" out="00:41:25,633">
   <property name="kdenlive:id">2</property>
  </entry>
  <entry producer="producer3" in="00:41:43,700" out="00:41:43,933">
   <property name="kdenlive:id">2</property>
  </entry>
  <entry producer="producer3" in="00:41:44,500" out="00:42:15,833">
   <property name="kdenlive:id">2</property>
  </entry>
  <entry producer="producer3" in="00:42:16,800" out="00:42:35,033">
   <property name="kdenlive:id">2</property>
  </entry>
  <entry producer="producer3" in="00:42:41,333" out="00:42:46,267">
   <property name="kdenlive:id">2</property>
  </entry>
  <entry producer="producer3" in="00:42:47,967" out="00:42:48,033">
   <property name="kdenlive:id">2</property>
  </entry>
  <entry producer="producer3" in="00:42:53,733" out="00:43:28,667">
   <property name="kdenlive:id">2</property>
  </entry>
  <entry producer="producer3" in="00:43:29,633" out="00:43:30,900">
   <property name="kdenlive:id">2</property>
  </entry>
  <entry producer="producer3" in="00:43:31,633" out="00:43:43,433">
   <property name="kdenlive:id">2</property>
  </entry>
  <entry producer="producer3" in="00:44:02,267" out="00:44:28,467">
   <property name="kdenlive:id">2</property>
  </entry>
  <entry producer="producer3" in="00:44:30,233" out="00:44:41,800">
   <property name="kdenlive:id">2</property>
  </entry>
  <entry producer="producer3" in="00:44:51,733" out="00:45:01,333">
   <property name="kdenlive:id">2</property>
  </entry>
  <entry producer="producer3" in="00:45:27,367" out="00:46:10,633">
   <property name="kdenlive:id">2</property>
  </entry>
  <blank length="00:01:50,000"/>
  <entry producer="producer3" in="00:47:07,000" out="00:47:25,067">
   <property name="kdenlive:id">2</property>
  </entry>
  <entry producer="producer3" in="00:47:33,233" out="00:48:16,167">
   <property name="kdenlive:id">2</property>
  </entry>
  <entry producer="producer3" in="00:48:17,233" out="00:49:34,467">
   <property name="kdenlive:id">2</property>
  </entry>
  <entry producer="producer3" in="00:49:41,800" out="00:49:49,933">
   <property name="kdenlive:id">2</property>
  </entry>
  <entry producer="producer3" in="00:49:54,667" out="00:49:58,333">
   <property name="kdenlive:id">2</property>
  </entry>
  <entry producer="producer3" in="00:50:07,567" out="00:50:13,533">
   <property name="kdenlive:id">2</property>
  </entry>
  <entry producer="producer3" in="00:50:27,333" out="00:50:34,667">
   <property name="kdenlive:id">2</property>
  </entry>
  <entry producer="producer3" in="00:50:40,967" out="00:51:48,700">
   <property name="kdenlive:id">2</property>
  </entry>
  <entry producer="producer3" in="00:51:57,700" out="00:52:19,400">
   <property name="kdenlive:id">2</property>
   <property name="kdenlive:activeeffect">0</property>
   <filter id="filter1">
    <property name="target_loudness">-23</property>
    <property name="window">3</property>
    <property name="max_gain">15</property>
    <property name="min_gain">-15</property>
    <property name="max_rate">3</property>
    <property name="in_loudness">-33,6798</property>
    <property name="out_gain">4,9</property>
    <property name="reset_count">3</property>
    <property name="mlt_service">dynamic_loudness</property>
    <property name="kdenlive_id">dynamic_loudness</property>
    <property name="kdenlive:collapsed">0</property>
   </filter>
  </entry>
  <entry producer="producer3" in="00:52:56,367" out="00:53:07,500">
   <property name="kdenlive:id">2</property>
   <property name="kdenlive:activeeffect">0</property>
   <filter id="filter2">
    <property name="channel">-1</property>
    <property name="split">00:52:56,367=0,5</property>
    <property name="mlt_service">panner</property>
    <property name="kdenlive_id">audiobalance</property>
    <property name="start">0,5</property>
    <property name="kdenlive:collapsed">0</property>
   </filter>
  </entry>
  <filter id="filter3" out="00:36:58,300">
   <property name="target_loudness">-23</property>
   <property name="window">3</property>
   <property name="max_gain">15</property>
   <property name="min_gain">-15</property>
   <property name="max_rate">3</property>
   <property name="in_loudness">-100</property>
   <property name="out_gain">0</property>
   <property name="reset_count">1</property>
   <property name="mlt_service">dynamic_loudness</property>
   <property name="kdenlive_id">dynamic_loudness</property>
   <property name="disable">1</property>
   <property name="kdenlive:collapsed">0</property>
  </filter>
  <filter id="filter4" out="00:36:58,300">
   <property name="channel">-1</property>
   <property name="split">0=0,5</property>
   <property name="mlt_service">panner</property>
   <property name="kdenlive_id">audiobalance</property>
   <property name="start">0,5</property>
   <property name="disable">1</property>
  </filter>
 </playlist>
 <playlist id="playlist1">
  <property name="kdenlive:audio_track">1</property>
 </playlist>
 <tractor id="tractor0" in="00:00:00,000" out="00:36:58,267">
  <property name="kdenlive:audio_track">1</property>
  <property name="kdenlive:trackheight">69</property>
  <property name="kdenlive:collapsed">0</property>
  <property name="kdenlive:thumbs_format"/>
  <property name="kdenlive:audio_rec"/>
  <property name="kdenlive:timeline_active">1</property>
  <track hide="video" producer="playlist0"/>
  <track hide="video" producer="playlist1"/>
  <filter id="filter5">
   <property name="window">75</property>
   <property name="max_gain">20dB</property>
   <property name="mlt_service">volume</property>
   <property name="internal_added">237</property>
   <property name="disable">1</property>
  </filter>
  <filter id="filter6">
   <property name="channel">-1</property>
   <property name="mlt_service">panner</property>
   <property name="internal_added">237</property>
   <property name="start">0,5</property>
   <property name="disable">1</property>
  </filter>
  <filter id="filter7">
   <property name="iec_scale">0</property>
   <property name="mlt_service">audiolevel</property>
   <property name="disable">1</property>
  </filter>
 </tractor>
 <producer id="producer4" in="00:00:00,000" out="00:02:41,567">
  <property name="length">4848</property>
  <property name="eof">pause</property>
  <property name="resource">zoom_1.mp4</property>
  <property name="audio_index">0</property>
  <property name="video_index">1</property>
  <property name="mute_on_pause">0</property>
  <property name="mlt_service">avformat-novalidate</property>
  <property name="seekable">1</property>
  <property name="aspect_ratio">1</property>
  <property name="kdenlive:clipname"/>
  <property name="kdenlive:folderid">-1</property>
  <property name="kdenlive:id">4</property>
  <property name="kdenlive:file_size">7119832</property>
  <property name="kdenlive:file_hash">ef4194f0d212a9183c5e321f5da59b8c</property>
  <property name="global_feed">1</property>
  <property name="xml">was here</property>
  <property name="meta.media.nb_streams">2</property>
  <property name="meta.media.0.stream.type">audio</property>
  <property name="meta.media.0.codec.sample_fmt">fltp</property>
  <property name="meta.media.0.codec.sample_rate">32000</property>
  <property name="meta.media.0.codec.channels">1</property>
  <property name="meta.media.0.codec.name">aac</property>
  <property name="meta.media.0.codec.long_name">AAC (Advanced Audio Coding)</property>
  <property name="meta.media.0.codec.bit_rate">126250</property>
  <property name="meta.attr.0.stream.creation_time.markup">2021-03-05T15:03:15.000000Z</property>
  <property name="meta.attr.0.stream.handler_name.markup">AAC audio</property>
  <property name="meta.media.1.stream.type">video</property>
  <property name="meta.media.1.stream.frame_rate">25</property>
  <property name="meta.media.1.stream.sample_aspect_ratio">0</property>
  <property name="meta.media.1.codec.width">1920</property>
  <property name="meta.media.1.codec.height">1080</property>
  <property name="meta.media.1.codec.rotate">0</property>
  <property name="meta.media.1.codec.frame_rate">30000</property>
  <property name="meta.media.1.codec.pix_fmt">yuv420p</property>
  <property name="meta.media.1.codec.sample_aspect_ratio">0</property>
  <property name="meta.media.1.codec.colorspace">709</property>
  <property name="meta.media.1.codec.name">h264</property>
  <property name="meta.media.1.codec.long_name">H.264 / AVC / MPEG-4 AVC / MPEG-4 part 10</property>
  <property name="meta.media.1.codec.bit_rate">224043</property>
  <property name="meta.attr.1.stream.creation_time.markup">2021-03-05T15:03:15.000000Z</property>
  <property name="meta.attr.1.stream.handler_name.markup">H.264/AVC video</property>
  <property name="meta.attr.1.stream.encoder.markup">AVC Coding</property>
  <property name="meta.attr.major_brand.markup">mp42</property>
  <property name="meta.attr.minor_version.markup">0</property>
  <property name="meta.attr.compatible_brands.markup">isommp42</property>
  <property name="meta.attr.creation_time.markup">2021-03-05T15:03:15.000000Z</property>
  <property name="meta.media.sample_aspect_num">1</property>
  <property name="meta.media.sample_aspect_den">1</property>
  <property name="meta.media.frame_rate_num">25</property>
  <property name="meta.media.frame_rate_den">1</property>
  <property name="meta.media.colorspace">709</property>
  <property name="meta.media.color_trc">2</property>
  <property name="meta.media.width">1920</property>
  <property name="meta.media.height">1080</property>
  <property name="meta.media.color_range">mpeg</property>
  <property name="meta.media.top_field_first">0</property>
  <property name="meta.media.progressive">1</property>
  <property name="set.test_audio">0</property>
  <property name="set.test_image">1</property>
 </producer>
 <playlist id="playlist2">
  <property name="kdenlive:audio_track">1</property>
  <blank length="00:30:44,067"/>
  <entry producer="producer4" in="00:00:04,467" out="00:00:09,867">
   <property name="kdenlive:id">4</property>
  </entry>
  <entry producer="producer4" in="00:00:25,733" out="00:00:52,000">
   <property name="kdenlive:id">4</property>
  </entry>
  <entry producer="producer4" in="00:01:02,433" out="00:01:11,767">
   <property name="kdenlive:id">4</property>
  </entry>
  <entry producer="producer4" in="00:01:18,833" out="00:02:09,833">
   <property name="kdenlive:id">4</property>
  </entry>
  <entry producer="producer4" in="00:02:12,267" out="00:02:13,633">
   <property name="kdenlive:id">4</property>
  </entry>
  <entry producer="producer4" in="00:02:14,500" out="00:02:20,033">
   <property name="kdenlive:id">4</property>
  </entry>
  <entry producer="producer4" in="00:02:22,867" out="00:02:33,733">
   <property name="kdenlive:id">4</property>
  </entry>
 </playlist>
 <playlist id="playlist3">
  <property name="kdenlive:audio_track">1</property>
 </playlist>
 <tractor id="tractor1" in="00:00:00,000" out="00:32:34,033">
  <property name="kdenlive:audio_track">1</property>
  <property name="kdenlive:trackheight">69</property>
  <property name="kdenlive:collapsed">0</property>
  <property name="kdenlive:thumbs_format"/>
  <property name="kdenlive:audio_rec"/>
  <property name="kdenlive:timeline_active">1</property>
  <track hide="video" producer="playlist2"/>
  <track hide="video" producer="playlist3"/>
  <filter id="filter8">
   <property name="window">75</property>
   <property name="max_gain">20dB</property>
   <property name="mlt_service">volume</property>
   <property name="internal_added">237</property>
   <property name="disable">1</property>
  </filter>
  <filter id="filter9">
   <property name="channel">-1</property>
   <property name="mlt_service">panner</property>
   <property name="internal_added">237</property>
   <property name="start">0,5</property>
   <property name="disable">1</property>
  </filter>
  <filter id="filter10">
   <property name="iec_scale">0</property>
   <property name="mlt_service">audiolevel</property>
   <property name="disable">1</property>
  </filter>
 </tractor>
 <producer id="producer5" in="00:00:00,000" out="00:02:41,567">
  <property name="length">4848</property>
  <property name="eof">pause</property>
  <property name="resource">zoom_1.mp4</property>
  <property name="audio_index">0</property>
  <property name="video_index">1</property>
  <property name="mute_on_pause">0</property>
  <property name="mlt_service">avformat-novalidate</property>
  <property name="seekable">1</property>
  <property name="aspect_ratio">1</property>
  <property name="kdenlive:clipname"/>
  <property name="kdenlive:folderid">-1</property>
  <property name="kdenlive:id">4</property>
  <property name="kdenlive:file_size">7119832</property>
  <property name="kdenlive:file_hash">ef4194f0d212a9183c5e321f5da59b8c</property>
  <property name="global_feed">1</property>
  <property name="xml">was here</property>
  <property name="meta.media.nb_streams">2</property>
  <property name="meta.media.0.stream.type">audio</property>
  <property name="meta.media.0.codec.sample_fmt">fltp</property>
  <property name="meta.media.0.codec.sample_rate">32000</property>
  <property name="meta.media.0.codec.channels">1</property>
  <property name="meta.media.0.codec.name">aac</property>
  <property name="meta.media.0.codec.long_name">AAC (Advanced Audio Coding)</property>
  <property name="meta.media.0.codec.bit_rate">126250</property>
  <property name="meta.attr.0.stream.creation_time.markup">2021-03-05T15:03:15.000000Z</property>
  <property name="meta.attr.0.stream.handler_name.markup">AAC audio</property>
  <property name="meta.media.1.stream.type">video</property>
  <property name="meta.media.1.stream.frame_rate">25</property>
  <property name="meta.media.1.stream.sample_aspect_ratio">0</property>
  <property name="meta.media.1.codec.width">1920</property>
  <property name="meta.media.1.codec.height">1080</property>
  <property name="meta.media.1.codec.rotate">0</property>
  <property name="meta.media.1.codec.frame_rate">30000</property>
  <property name="meta.media.1.codec.pix_fmt">yuv420p</property>
  <property name="meta.media.1.codec.sample_aspect_ratio">0</property>
  <property name="meta.media.1.codec.colorspace">709</property>
  <property name="meta.media.1.codec.name">h264</property>
  <property name="meta.media.1.codec.long_name">H.264 / AVC / MPEG-4 AVC / MPEG-4 part 10</property>
  <property name="meta.media.1.codec.bit_rate">224043</property>
  <property name="meta.attr.1.stream.creation_time.markup">2021-03-05T15:03:15.000000Z</property>
  <property name="meta.attr.1.stream.handler_name.markup">H.264/AVC video</property>
  <property name="meta.attr.1.stream.encoder.markup">AVC Coding</property>
  <property name="meta.attr.major_brand.markup">mp42</property>
  <property name="meta.attr.minor_version.markup">0</property>
  <property name="meta.attr.compatible_brands.markup">isommp42</property>
  <property name="meta.attr.creation_time.markup">2021-03-05T15:03:15.000000Z</property>
  <property name="meta.media.sample_aspect_num">1</property>
  <property name="meta.media.sample_aspect_den">1</property>
  <property name="meta.media.frame_rate_num">25</property>
  <property name="meta.media.frame_rate_den">1</property>
  <property name="meta.media.colorspace">709</property>
  <property name="meta.media.color_trc">2</property>
  <property name="meta.media.width">1920</property>
  <property name="meta.media.height">1080</property>
  <property name="meta.media.color_range">mpeg</property>
  <property name="meta.media.top_field_first">0</property>
  <property name="meta.media.progressive">1</property>
  <property name="set.test_audio">1</property>
  <property name="set.test_image">0</property>
 </producer>
 <playlist id="playlist4">
  <blank length="00:30:44,067"/>
  <entry producer="producer5" in="00:00:04,467" out="00:00:09,867">
   <property name="kdenlive:id">4</property>
  </entry>
  <entry producer="producer5" in="00:00:25,733" out="00:00:52,000">
   <property name="kdenlive:id">4</property>
  </entry>
  <entry producer="producer5" in="00:01:02,433" out="00:01:11,767">
   <property name="kdenlive:id">4</property>
  </entry>
  <entry producer="producer5" in="00:01:18,833" out="00:02:09,833">
   <property name="kdenlive:id">4</property>
  </entry>
  <entry producer="producer5" in="00:02:12,267" out="00:02:13,633">
   <property name="kdenlive:id">4</property>
  </entry>
  <entry producer="producer5" in="00:02:14,500" out="00:02:20,033">
   <property name="kdenlive:id">4</property>
  </entry>
  <entry producer="producer5" in="00:02:22,867" out="00:02:33,733">
   <property name="kdenlive:id">4</property>
  </entry>
 </playlist>
 <playlist id="playlist5"/>
 <tractor id="tractor2" in="00:00:00,000" out="00:32:34,033">
  <property name="kdenlive:trackheight">69</property>
  <property name="kdenlive:collapsed">0</property>
  <property name="kdenlive:thumbs_format"/>
  <property name="kdenlive:audio_rec"/>
  <property name="kdenlive:timeline_active">1</property>
  <track hide="audio" producer="playlist4"/>
  <track hide="audio" producer="playlist5"/>
 </tractor>
 <producer id="producer6" in="00:00:00,000" out="00:53:11,733">
  <property name="length">95753</property>
  <property name="eof">pause</property>
  <property name="resource">presentation_video.mp4</property>
  <property name="audio_index">0</property>
  <property name="video_index">1</property>
  <property name="mute_on_pause">0</property>
  <property name="mlt_service">avformat-novalidate</property>
  <property name="seekable">1</property>
  <property name="aspect_ratio">1</property>
  <property name="kdenlive:clipname"/>
  <property name="kdenlive:folderid">-1</property>
  <property name="kdenlive:id">2</property>
  <property name="kdenlive:file_size">167032913</property>
  <property name="kdenlive:file_hash">6e17c157ae37769ad71074e34243beb5</property>
  <property name="global_feed">1</property>
  <property name="xml">was here</property>
  <property name="meta.media.nb_streams">2</property>
  <property name="meta.media.0.stream.type">audio</property>
  <property name="meta.media.0.codec.sample_fmt">fltp</property>
  <property name="meta.media.0.codec.sample_rate">32000</property>
  <property name="meta.media.0.codec.channels">1</property>
  <property name="meta.media.0.codec.name">aac</property>
  <property name="meta.media.0.codec.long_name">AAC (Advanced Audio Coding)</property>
  <property name="meta.media.0.codec.bit_rate">126250</property>
  <property name="meta.attr.0.stream.creation_time.markup">2021-03-05T12:12:41.000000Z</property>
  <property name="meta.attr.0.stream.handler_name.markup">AAC audio</property>
  <property name="meta.media.1.stream.type">video</property>
  <property name="meta.media.1.stream.frame_rate">25</property>
  <property name="meta.media.1.stream.sample_aspect_ratio">0</property>
  <property name="meta.media.1.codec.width">1920</property>
  <property name="meta.media.1.codec.height">1080</property>
  <property name="meta.media.1.codec.rotate">0</property>
  <property name="meta.media.1.codec.frame_rate">30000</property>
  <property name="meta.media.1.codec.pix_fmt">yuv420p</property>
  <property name="meta.media.1.codec.sample_aspect_ratio">0</property>
  <property name="meta.media.1.codec.colorspace">709</property>
  <property name="meta.media.1.codec.name">h264</property>
  <property name="meta.media.1.codec.long_name">H.264 / AVC / MPEG-4 AVC / MPEG-4 part 10</property>
  <property name="meta.media.1.codec.bit_rate">290275</property>
  <property name="meta.attr.1.stream.creation_time.markup">2021-03-05T12:12:41.000000Z</property>
  <property name="meta.attr.1.stream.handler_name.markup">H.264/AVC video</property>
  <property name="meta.attr.1.stream.encoder.markup">AVC Coding</property>
  <property name="meta.attr.major_brand.markup">mp42</property>
  <property name="meta.attr.minor_version.markup">0</property>
  <property name="meta.attr.compatible_brands.markup">isommp42</property>
  <property name="meta.attr.creation_time.markup">2021-03-05T12:12:41.000000Z</property>
  <property name="meta.media.sample_aspect_num">1</property>
  <property name="meta.media.sample_aspect_den">1</property>
  <property name="meta.media.frame_rate_num">25</property>
  <property name="meta.media.frame_rate_den">1</property>
  <property name="meta.media.colorspace">709</property>
  <property name="meta.media.color_trc">2</property>
  <property name="meta.media.width">1920</property>
  <property name="meta.media.height">1080</property>
  <property name="meta.media.color_range">mpeg</property>
  <property name="meta.media.top_field_first">0</property>
  <property name="meta.media.progressive">1</property>
  <property name="set.test_audio">1</property>
  <property name="set.test_image">0</property>
 </producer>
 <playlist id="playlist6">
  <entry producer="producer6" in="00:00:04,800" out="00:00:04,800">
   <property name="kdenlive:id">2</property>
  </entry>
  <entry producer="producer6" in="00:03:18,433" out="00:03:23,467">
   <property name="kdenlive:id">2</property>
  </entry>
  <entry producer="producer6" in="00:03:23,867" out="00:03:29,233">
   <property name="kdenlive:id">2</property>
  </entry>
  <entry producer="producer6" in="00:03:41,667" out="00:03:46,433">
   <property name="kdenlive:id">2</property>
  </entry>
  <entry producer="producer6" in="00:03:46,567" out="00:04:12,667">
   <property name="kdenlive:id">2</property>
  </entry>
  <entry producer="producer6" in="00:04:14,433" out="00:04:21,100">
   <property name="kdenlive:id">2</property>
  </entry>
  <entry producer="producer6" in="00:04:21,767" out="00:04:29,300">
   <property name="kdenlive:id">2</property>
  </entry>
  <entry producer="producer6" in="00:04:30,333" out="00:04:50,067">
   <property name="kdenlive:id">2</property>
  </entry>
  <entry producer="producer6" in="00:04:50,967" out="00:04:58,000">
   <property name="kdenlive:id">2</property>
  </entry>
  <entry producer="producer6" in="00:05:06,733" out="00:05:18,033">
   <property name="kdenlive:id">2</property>
  </entry>
  <entry producer="producer6" in="00:05:18,700" out="00:05:22,633">
   <property name="kdenlive:id">2</property>
  </entry>
  <entry producer="producer6" in="00:05:30,333" out="00:05:31,167">
   <property name="kdenlive:id">2</property>
  </entry>
  <entry producer="producer6" in="00:05:41,767" out="00:06:19,567">
   <property name="kdenlive:id">2</property>
  </entry>
  <entry producer="producer6" in="00:06:22,467" out="00:06:31,267">
   <property name="kdenlive:id">2</property>
  </entry>
  <entry producer="producer6" in="00:06:31,733" out="00:06:58,000">
   <property name="kdenlive:id">2</property>
  </entry>
  <entry producer="producer6" in="00:07:07,433" out="00:07:27,400">
   <property name="kdenlive:id">2</property>
  </entry>
  <entry producer="producer6" in="00:07:42,700" out="00:07:59,900">
   <property name="kdenlive:id">2</property>
  </entry>
  <entry producer="producer6" in="00:08:07,933" out="00:08:14,300">
   <property name="kdenlive:id">2</property>
  </entry>
  <entry producer="producer6" in="00:08:15,267" out="00:08:21,167">
   <property name="kdenlive:id">2</property>
  </entry>
  <entry producer="producer6" in="00:08:27,667" out="00:08:38,700">
   <property name="kdenlive:id">2</property>
  </entry>
  <entry producer="producer6" in="00:08:39,233" out="00:08:47,967">
   <property name="kdenlive:id">2</property>
  </entry>
  <entry producer="producer6" in="00:08:48,367" out="00:08:54,067">
   <property name="kdenlive:id">2</property>
  </entry>
  <entry producer="producer6" in="00:08:54,567" out="00:08:57,567">
   <property name="kdenlive:id">2</property>
  </entry>
  <entry producer="producer6" in="00:08:58,600" out="00:09:08,000">
   <property name="kdenlive:id">2</property>
  </entry>
  <entry producer="producer6" in="00:09:08,600" out="00:09:24,767">
   <property name="kdenlive:id">2</property>
  </entry>
  <entry producer="producer6" in="00:09:25,233" out="00:09:33,867">
   <property name="kdenlive:id">2</property>
  </entry>
  <entry producer="producer6" in="00:09:45,133" out="00:10:00,033">
   <property name="kdenlive:id">2</property>
  </entry>
  <entry producer="producer6" in="00:10:00,533" out="00:10:23,467">
   <property name="kdenlive:id">2</property>
  </entry>
  <entry producer="producer6" in="00:10:24,267" out="00:10:44,600">
   <property name="kdenlive:id">2</property>
  </entry>
  <entry producer="producer6" in="00:10:45,400" out="00:10:51,933">
   <property name="kdenlive:id">2</property>
  </entry>
  <entry producer="producer6" in="00:10:52,767" out="00:11:00,633">
   <property name="kdenlive:id">2</property>
  </entry>
  <entry producer="producer6" in="00:11:01,833" out="00:11:07,200">
   <property name="kdenlive:id">2</property>
  </entry>
  <entry producer="producer6" in="00:11:11,333" out="00:11:18,200">
   <property name="kdenlive:id">2</property>
  </entry>
  <entry producer="producer6" in="00:11:19,267" out="00:11:38,767">
   <property name="kdenlive:id">2</property>
  </entry>
  <entry producer="producer6" in="00:12:03,900" out="00:12:22,500">
   <property name="kdenlive:id">2</property>
  </entry>
  <entry producer="producer6" in="00:12:23,767" out="00:12:36,133">
   <property name="kdenlive:id">2</property>
  </entry>
  <entry producer="producer6" in="00:12:47,533" out="00:12:54,433">
   <property name="kdenlive:id">2</property>
  </entry>
  <entry producer="producer6" in="00:12:55,067" out="00:13:05,300">
   <property name="kdenlive:id">2</property>
  </entry>
  <entry producer="producer6" in="00:13:06,033" out="00:13:10,167">
   <property name="kdenlive:id">2</property>
  </entry>
  <entry producer="producer6" in="00:13:10,933" out="00:13:15,067">
   <property name="kdenlive:id">2</property>
  </entry>
  <entry producer="producer6" in="00:13:16,033" out="00:13:20,900">
   <property name="kdenlive:id">2</property>
  </entry>
  <entry producer="producer6" in="00:13:21,700" out="00:13:27,467">
   <property name="kdenlive:id">2</property>
  </entry>
  <entry producer="producer6" in="00:13:37,900" out="00:13:40,567">
   <property name="kdenlive:id">2</property>
  </entry>
  <entry producer="producer6" in="00:13:41,333" out="00:13:48,467">
   <property name="kdenlive:id">2</property>
  </entry>
  <entry producer="producer6" in="00:13:55,767" out="00:14:05,933">
   <property name="kdenlive:id">2</property>
  </entry>
  <entry producer="producer6" in="00:14:16,600" out="00:14:34,567">
   <property name="kdenlive:id">2</property>
  </entry>
  <entry producer="producer6" in="00:14:35,267" out="00:14:39,700">
   <property name="kdenlive:id">2</property>
  </entry>
  <entry producer="producer6" in="00:14:40,400" out="00:15:02,100">
   <property name="kdenlive:id">2</property>
  </entry>
  <entry producer="producer6" in="00:15:10,133" out="00:15:20,467">
   <property name="kdenlive:id">2</property>
  </entry>
  <entry producer="producer6" in="00:15:20,667" out="00:15:34,767">
   <property name="kdenlive:id">2</property>
  </entry>
  <entry producer="producer6" in="00:15:41,100" out="00:15:41,867">
   <property name="kdenlive:id">2</property>
  </entry>
  <entry producer="producer6" in="00:15:42,033" out="00:15:53,567">
   <property name="kdenlive:id">2</property>
  </entry>
  <entry producer="producer6" in="00:15:55,200" out="00:15:59,967">
   <property name="kdenlive:id">2</property>
  </entry>
  <entry producer="producer6" in="00:16:00,700" out="00:16:10,067">
   <property name="kdenlive:id">2</property>
  </entry>
  <entry producer="producer6" in="00:16:11,033" out="00:16:14,700">
   <property name="kdenlive:id">2</property>
  </entry>
  <entry producer="producer6" in="00:16:21,233" out="00:16:24,600">
   <property name="kdenlive:id">2</property>
  </entry>
  <entry producer="producer6" in="00:16:25,500" out="00:16:29,233">
   <property name="kdenlive:id">2</property>
  </entry>
  <entry producer="producer6" in="00:16:30,367" out="00:16:54,667">
   <property name="kdenlive:id">2</property>
  </entry>
  <entry producer="producer6" in="00:17:04,800" out="00:17:10,300">
   <property name="kdenlive:id">2</property>
  </entry>
  <entry producer="producer6" in="00:18:12,400" out="00:18:26,867">
   <property name="kdenlive:id">2</property>
  </entry>
  <entry producer="producer6" in="00:18:27,500" out="00:18:43,700">
   <property name="kdenlive:id">2</property>
  </entry>
  <entry producer="producer6" in="00:18:44,333" out="00:18:49,567">
   <property name="kdenlive:id">2</property>
  </entry>
  <entry producer="producer6" in="00:18:50,600" out="00:19:01,600">
   <property name="kdenlive:id">2</property>
  </entry>
  <entry producer="producer6" in="00:19:01,967" out="00:19:12,233">
   <property name="kdenlive:id">2</property>
  </entry>
  <entry producer="producer6" in="00:19:13,267" out="00:19:22,767">
   <property name="kdenlive:id">2</property>
  </entry>
  <entry producer="producer6" in="00:19:23,800" out="00:19:33,600">
   <property name="kdenlive:id">2</property>
  </entry>
  <entry producer="producer6" in="00:19:33,933" out="00:19:35,933">
   <property name="kdenlive:id">2</property>
  </entry>
  <entry producer="producer6" in="00:19:36,267" out="00:19:36,567">
   <property name="kdenlive:id">2</property>
  </entry>
  <entry producer="producer6" in="00:19:37,367" out="00:19:39,933">
   <property name="kdenlive:id">2</property>
  </entry>
  <entry producer="producer6" in="00:19:40,633" out="00:19:50,133">
   <property name="kdenlive:id">2</property>
  </entry>
  <entry producer="producer6" in="00:19:58,800" out="00:20:18,600">
   <property name="kdenlive:id">2</property>
  </entry>
  <entry producer="producer6" in="00:20:19,267" out="00:20:34,200">
   <property name="kdenlive:id">2</property>
  </entry>
  <entry producer="producer6" in="00:20:51,367" out="00:20:56,633">
   <property name="kdenlive:id">2</property>
  </entry>
  <entry producer="producer6" in="00:20:57,367" out="00:21:06,367">
   <property name="kdenlive:id">2</property>
  </entry>
  <entry producer="producer6" in="00:21:16,067" out="00:21:25,300">
   <property name="kdenlive:id">2</property>
  </entry>
  <entry producer="producer6" in="00:21:33,200" out="00:21:37,933">
   <property name="kdenlive:id">2</property>
  </entry>
  <entry producer="producer6" in="00:21:38,733" out="00:21:50,500">
   <property name="kdenlive:id">2</property>
  </entry>
  <entry producer="producer6" in="00:21:54,800" out="00:21:56,967">
   <property name="kdenlive:id">2</property>
  </entry>
  <entry producer="producer6" in="00:21:57,767" out="00:22:05,333">
   <property name="kdenlive:id">2</property>
  </entry>
  <entry producer="producer6" in="00:22:06,400" out="00:22:10,767">
   <property name="kdenlive:id">2</property>
  </entry>
  <entry producer="producer6" in="00:22:20,100" out="00:22:28,267">
   <property name="kdenlive:id">2</property>
  </entry>
  <entry producer="producer6" in="00:22:32,600" out="00:22:53,467">
   <property name="kdenlive:id">2</property>
  </entry>
  <entry producer="producer6" in="00:22:54,467" out="00:23:15,567">
   <property name="kdenlive:id">2</property>
  </entry>
  <entry producer="producer6" in="00:23:16,067" out="00:23:19,833">
   <property name="kdenlive:id">2</property>
  </entry>
  <entry producer="producer6" in="00:23:20,333" out="00:23:29,767">
   <property name="kdenlive:id">2</property>
  </entry>
  <entry producer="producer6" in="00:23:30,567" out="00:23:40,433">
   <property name="kdenlive:id">2</property>
  </entry>
  <entry producer="producer6" in="00:23:46,900" out="00:23:53,300">
   <property name="kdenlive:id">2</property>
  </entry>
  <entry producer="producer6" in="00:24:05,300" out="00:24:17,133">
   <property name="kdenlive:id">2</property>
  </entry>
  <entry producer="producer6" in="00:24:18,400" out="00:24:22,333">
   <property name="kdenlive:id">2</property>
  </entry>
  <entry producer="producer6" in="00:24:35,100" out="00:24:42,033">
   <property name="kdenlive:id">2</property>
  </entry>
  <entry producer="producer6" in="00:24:48,700" out="00:25:05,233">
   <property name="kdenlive:id">2</property>
  </entry>
  <entry producer="producer6" in="00:25:06,233" out="00:25:19,367">
   <property name="kdenlive:id">2</property>
  </entry>
  <entry producer="producer6" in="00:25:35,100" out="00:25:46,267">
   <property name="kdenlive:id">2</property>
  </entry>
  <entry producer="producer6" in="00:25:47,133" out="00:25:51,500">
   <property name="kdenlive:id">2</property>
  </entry>
  <entry producer="producer6" in="00:25:58,300" out="00:26:13,967">
   <property name="kdenlive:id">2</property>
  </entry>
  <entry producer="producer6" in="00:26:14,733" out="00:26:28,833">
   <property name="kdenlive:id">2</property>
  </entry>
  <entry producer="producer6" in="00:26:29,600" out="00:26:33,100">
   <property name="kdenlive:id">2</property>
  </entry>
  <entry producer="producer6" in="00:26:33,867" out="00:26:40,133">
   <property name="kdenlive:id">2</property>
  </entry>
  <entry producer="producer6" in="00:26:40,900" out="00:26:49,933">
   <property name="kdenlive:id">2</property>
  </entry>
  <entry producer="producer6" in="00:27:05,900" out="00:27:13,000">
   <property name="kdenlive:id">2</property>
  </entry>
  <entry producer="producer6" in="00:27:19,467" out="00:27:46,300">
   <property name="kdenlive:id">2</property>
  </entry>
  <entry producer="producer6" in="00:27:58,500" out="00:28:08,233">
   <property name="kdenlive:id">2</property>
  </entry>
  <entry producer="producer6" in="00:28:09,100" out="00:28:24,500">
   <property name="kdenlive:id">2</property>
  </entry>
  <entry producer="producer6" in="00:28:25,367" out="00:28:41,333">
   <property name="kdenlive:id">2</property>
  </entry>
  <entry producer="producer6" in="00:28:54,367" out="00:28:57,567">
   <property name="kdenlive:id">2</property>
  </entry>
  <entry producer="producer6" in="00:29:03,100" out="00:29:11,500">
   <property name="kdenlive:id">2</property>
  </entry>
  <entry producer="producer6" in="00:29:18,033" out="00:29:24,900">
   <property name="kdenlive:id">2</property>
  </entry>
  <entry producer="producer6" in="00:29:25,533" out="00:29:28,433">
   <property name="kdenlive:id">2</property>
  </entry>
  <entry producer="producer6" in="00:29:29,600" out="00:29:36,900">
   <property name="kdenlive:id">2</property>
  </entry>
  <entry producer="producer6" in="00:29:37,733" out="00:29:58,033">
   <property name="kdenlive:id">2</property>
  </entry>
  <entry producer="producer6" in="00:30:13,300" out="00:30:19,100">
   <property name="kdenlive:id">2</property>
  </entry>
  <entry producer="producer6" in="00:30:19,833" out="00:30:34,000">
   <property name="kdenlive:id">2</property>
  </entry>
  <entry producer="producer6" in="00:30:39,333" out="00:30:56,333">
   <property name="kdenlive:id">2</property>
  </entry>
  <entry producer="producer6" in="00:30:57,233" out="00:31:47,933">
   <property name="kdenlive:id">2</property>
  </entry>
  <entry producer="producer6" in="00:31:56,933" out="00:32:07,067">
   <property name="kdenlive:id">2</property>
  </entry>
  <entry producer="producer6" in="00:32:07,767" out="00:32:19,200">
   <property name="kdenlive:id">2</property>
  </entry>
  <entry producer="producer6" in="00:32:19,900" out="00:32:28,467">
   <property name="kdenlive:id">2</property>
  </entry>
  <entry producer="producer6" in="00:32:29,167" out="00:32:47,900">
   <property name="kdenlive:id">2</property>
  </entry>
  <entry producer="producer6" in="00:32:48,633" out="00:32:54,600">
   <property name="kdenlive:id">2</property>
  </entry>
  <entry producer="producer6" in="00:32:59,333" out="00:33:03,000">
   <property name="kdenlive:id">2</property>
  </entry>
  <entry producer="producer6" in="00:33:06,633" out="00:33:08,500">
   <property name="kdenlive:id">2</property>
  </entry>
  <entry producer="producer6" in="00:33:11,367" out="00:33:34,300">
   <property name="kdenlive:id">2</property>
  </entry>
  <entry producer="producer6" in="00:33:34,967" out="00:33:47,700">
   <property name="kdenlive:id">2</property>
  </entry>
  <entry producer="producer6" in="00:33:48,367" out="00:33:59,067">
   <property name="kdenlive:id">2</property>
  </entry>
  <entry producer="producer6" in="00:34:13,567" out="00:34:20,300">
   <property name="kdenlive:id">2</property>
  </entry>
  <entry producer="producer6" in="00:34:21,100" out="00:34:44,433">
   <property name="kdenlive:id">2</property>
  </entry>
  <entry producer="producer6" in="00:34:45,333" out="00:34:54,667">
   <property name="kdenlive:id">2</property>
  </entry>
  <entry producer="producer6" in="00:34:55,800" out="00:34:58,267">
   <property name="kdenlive:id">2</property>
  </entry>
  <entry producer="producer6" in="00:34:59,433" out="00:35:02,967">
   <property name="kdenlive:id">2</property>
  </entry>
  <entry producer="producer6" in="00:35:11,367" out="00:35:14,000">
   <property name="kdenlive:id">2</property>
  </entry>
  <entry producer="producer6" in="00:35:14,267" out="00:35:38,867">
   <property name="kdenlive:id">2</property>
  </entry>
  <entry producer="producer6" in="00:35:49,167" out="00:36:06,900">
   <property name="kdenlive:id">2</property>
  </entry>
  <entry producer="producer6" in="00:36:48,633" out="00:37:35,767">
   <property name="kdenlive:id">2</property>
  </entry>
  <entry producer="producer6" in="00:37:37,233" out="00:37:40,233">
   <property name="kdenlive:id">2</property>
  </entry>
  <entry producer="producer6" in="00:37:41,000" out="00:38:43,200">
   <property name="kdenlive:id">2</property>
  </entry>
  <entry producer="producer6" in="00:38:53,867" out="00:39:20,933">
   <property name="kdenlive:id">2</property>
  </entry>
  <entry producer="producer6" in="00:39:24,933" out="00:39:50,500">
   <property name="kdenlive:id">2</property>
  </entry>
  <entry producer="producer6" in="00:39:52,167" out="00:40:14,367">
   <property name="kdenlive:id">2</property>
  </entry>
  <entry producer="producer6" in="00:40:21,000" out="00:41:15,667">
   <property name="kdenlive:id">2</property>
  </entry>
  <entry producer="producer6" in="00:41:16,467" out="00:41:25,633">
   <property name="kdenlive:id">2</property>
  </entry>
  <entry producer="producer6" in="00:41:43,700" out="00:41:43,933">
   <property name="kdenlive:id">2</property>
  </entry>
  <entry producer="producer6" in="00:41:44,500" out="00:42:15,833">
   <property name="kdenlive:id">2</property>
  </entry>
  <entry producer="producer6" in="00:42:16,800" out="00:42:35,033">
   <property name="kdenlive:id">2</property>
  </entry>
  <entry producer="producer6" in="00:42:41,333" out="00:42:46,267">
   <property name="kdenlive:id">2</property>
  </entry>
  <entry producer="producer6" in="00:42:47,967" out="00:42:48,033">
   <property name="kdenlive:id">2</property>
  </entry>
  <entry producer="producer6" in="00:42:53,733" out="00:43:28,667">
   <property name="kdenlive:id">2</property>
  </entry>
  <entry producer="producer6" in="00:43:29,633" out="00:43:30,900">
   <property name="kdenlive:id">2</property>
  </entry>
  <entry producer="producer6" in="00:43:31,633" out="00:43:43,433">
   <property name="kdenlive:id">2</property>
  </entry>
  <entry producer="producer6" in="00:44:02,267" out="00:44:28,467">
   <property name="kdenlive:id">2</property>
  </entry>
  <entry producer="producer6" in="00:44:30,233" out="00:44:41,800">
   <property name="kdenlive:id">2</property>
  </entry>
  <entry producer="producer6" in="00:44:51,733" out="00:45:01,333">
   <property name="kdenlive:id">2</property>
  </entry>
  <entry producer="producer6" in="00:45:27,367" out="00:46:10,633">
   <property name="kdenlive:id">2</property>
  </entry>
  <blank length="00:01:50,000"/>
  <entry producer="producer6" in="00:47:07,000" out="00:47:25,067">
   <property name="kdenlive:id">2</property>
  </entry>
  <entry producer="producer6" in="00:47:33,233" out="00:48:16,167">
   <property name="kdenlive:id">2</property>
  </entry>
  <entry producer="producer6" in="00:48:17,233" out="00:49:34,467">
   <property name="kdenlive:id">2</property>
  </entry>
  <entry producer="producer6" in="00:49:41,800" out="00:49:49,933">
   <property name="kdenlive:id">2</property>
  </entry>
  <entry producer="producer6" in="00:49:54,667" out="00:49:58,333">
   <property name="kdenlive:id">2</property>
  </entry>
  <entry producer="producer6" in="00:50:07,567" out="00:50:13,533">
   <property name="kdenlive:id">2</property>
  </entry>
  <entry producer="producer6" in="00:50:27,333" out="00:50:34,667">
   <property name="kdenlive:id">2</property>
  </entry>
  <entry producer="producer6" in="00:50:40,967" out="00:51:48,700">
   <property name="kdenlive:id">2</property>
  </entry>
  <entry producer="producer6" in="00:51:57,700" out="00:52:19,400">
   <property name="kdenlive:id">2</property>
  </entry>
  <entry producer="producer6" in="00:52:56,367" out="00:53:07,500">
   <property name="kdenlive:id">2</property>
  </entry>
 </playlist>
 <playlist id="playlist7"/>
 <tractor id="tractor3" in="00:00:00,000" out="00:36:58,267">
  <property name="kdenlive:trackheight">69</property>
  <property name="kdenlive:collapsed">0</property>
  <property name="kdenlive:thumbs_format"/>
  <property name="kdenlive:audio_rec"/>
  <property name="kdenlive:timeline_active">1</property>
  <track hide="audio" producer="playlist6"/>
  <track hide="audio" producer="playlist7"/>
 </tractor>
 <tractor id="tractor4" global_feed="1" in="00:00:00,000" out="00:53:38,300">
  <track producer="black_track"/>
  <track producer="tractor0"/>
  <track producer="tractor1"/>
  <track producer="tractor2"/>
  <track producer="tractor3"/>
  <transition id="transition0">
   <property name="a_track">0</property>
   <property name="b_track">1</property>
   <property name="mlt_service">mix</property>
   <property name="kdenlive_id">mix</property>
   <property name="internal_added">237</property>
   <property name="always_active">1</property>
   <property name="sum">1</property>
  </transition>
  <transition id="transition1">
   <property name="a_track">0</property>
   <property name="b_track">2</property>
   <property name="mlt_service">mix</property>
   <property name="kdenlive_id">mix</property>
   <property name="internal_added">237</property>
   <property name="always_active">1</property>
   <property name="sum">1</property>
  </transition>
  <transition id="transition2">
   <property name="a_track">0</property>
   <property name="b_track">3</property>
   <property name="compositing">0</property>
   <property name="distort">0</property>
   <property name="rotate_center">0</property>
   <property name="mlt_service">qtblend</property>
   <property name="kdenlive_id">qtblend</property>
   <property name="internal_added">237</property>
   <property name="always_active">1</property>
  </transition>
  <transition id="transition3">
   <property name="a_track">0</property>
   <property name="b_track">4</property>
   <property name="compositing">0</property>
   <property name="distort">0</property>
   <property name="rotate_center">0</property>
   <property name="mlt_service">qtblend</property>
   <property name="kdenlive_id">qtblend</property>
   <property name="internal_added">237</property>
   <property name="always_active">1</property>
  </transition>
  <filter id="filter11">
   <property name="window">75</property>
   <property name="max_gain">20dB</property>
   <property name="mlt_service">volume</property>
   <property name="internal_added">237</property>
   <property name="disable">1</property>
  </filter>
  <filter id="filter12">
   <property name="channel">-1</property>
   <property name="mlt_service">panner</property>
   <property name="internal_added">237</property>
   <property name="start">0,5</property>
   <property name="disable">1</property>
  </filter>
  <filter id="filter13">
   <property name="iec_scale">0</property>
   <property name="mlt_service">audiolevel</property>
   <property name="disable">1</property>
  </filter>
 </tractor>
</mlt>
