<?xml version='1.0' encoding='utf-8'?>
<mlt LC_NUMERIC="de_DE" producer="main_bin" version="6.21.0" root="C:/Users/wimme/Documents/1_uni/1_master/semester_3/manifold/manifold-lle/3_presentation">
 <profile frame_rate_num="30" sample_aspect_num="1" display_aspect_den="9" colorspace="709" progressive="1" description="HD 1080p 30 fps" display_aspect_num="16" frame_rate_den="1" width="1920" height="1080" sample_aspect_den="1"/>
 <producer id="producer0" in="00:00:00,000" out="00:00:44,433">
  <property name="length">1334</property>
  <property name="eof">pause</property>
  <property name="resource">C:/Users/wimme/Documents/Zoom/2021-03-05 17.00.56 Persönlicher Meetingraum von Lisa Wimmer 5439630184/zoom_1.mp4</property>
  <property name="meta.media.nb_streams">2</property>
  <property name="meta.media.0.stream.type">audio</property>
  <property name="meta.media.0.codec.sample_fmt">fltp</property>
  <property name="meta.media.0.codec.sample_rate">32000</property>
  <property name="meta.media.0.codec.channels">1</property>
  <property name="meta.media.0.codec.name">aac</property>
  <property name="meta.media.0.codec.long_name">AAC (Advanced Audio Coding)</property>
  <property name="meta.media.0.codec.bit_rate">126250</property>
  <property name="meta.attr.0.stream.creation_time.markup">2021-03-05T16:03:17.000000Z</property>
  <property name="meta.attr.0.stream.handler_name.markup">AAC audio</property>
  <property name="meta.media.1.stream.type">video</property>
  <property name="meta.media.1.stream.frame_rate">25</property>
  <property name="meta.media.1.stream.sample_aspect_ratio">0</property>
  <property name="meta.media.1.codec.width">1920</property>
  <property name="meta.media.1.codec.height">1080</property>
  <property name="meta.media.1.codec.rotate">0</property>
  <property name="meta.media.1.codec.frame_rate">30000</property>
  <property name="meta.media.1.codec.pix_fmt">yuv420p</property>
  <property name="meta.media.1.codec.sample_aspect_ratio">0</property>
  <property name="meta.media.1.codec.colorspace">709</property>
  <property name="meta.media.1.codec.name">h264</property>
  <property name="meta.media.1.codec.long_name">H.264 / AVC / MPEG-4 AVC / MPEG-4 part 10</property>
  <property name="meta.media.1.codec.bit_rate">197441</property>
  <property name="meta.attr.1.stream.creation_time.markup">2021-03-05T16:03:17.000000Z</property>
  <property name="meta.attr.1.stream.handler_name.markup">H.264/AVC video</property>
  <property name="meta.attr.1.stream.encoder.markup">AVC Coding</property>
  <property name="meta.attr.major_brand.markup">mp42</property>
  <property name="meta.attr.minor_version.markup">0</property>
  <property name="meta.attr.compatible_brands.markup">isommp42</property>
  <property name="meta.attr.creation_time.markup">2021-03-05T16:03:17.000000Z</property>
  <property name="seekable">1</property>
  <property name="meta.media.sample_aspect_num">1</property>
  <property name="meta.media.sample_aspect_den">1</property>
  <property name="aspect_ratio">1</property>
  <property name="audio_index">0</property>
  <property name="video_index">1</property>
  <property name="mute_on_pause">0</property>
  <property name="mlt_service">avformat-novalidate</property>
  <property name="kdenlive:clipname"/>
  <property name="meta.media.frame_rate_num">25</property>
  <property name="meta.media.frame_rate_den">1</property>
  <property name="meta.media.colorspace">709</property>
  <property name="meta.media.color_trc">2</property>
  <property name="meta.media.width">1920</property>
  <property name="meta.media.height">1080</property>
  <property name="meta.media.color_range">mpeg</property>
  <property name="meta.media.top_field_first">0</property>
  <property name="meta.media.progressive">1</property>
  <property name="kdenlive:folderid">-1</property>
  <property name="kdenlive:id">2</property>
  <property name="kdenlive:file_size">1812369</property>
  <property name="kdenlive:file_hash">dc6604860f97288c7811ff267e5d3384</property>
  <property name="global_feed">1</property>
 </producer>
 <producer id="producer1" in="00:00:00,000" out="00:00:41,500">
  <property name="length">1246</property>
  <property name="eof">pause</property>
  <property name="resource">C:/Users/wimme/Documents/Zoom/2021-03-05 17.10.38 Persönlicher Meetingraum von Lisa Wimmer 5439630184/zoom_2.mp4</property>
  <property name="meta.media.nb_streams">2</property>
  <property name="meta.media.0.stream.type">audio</property>
  <property name="meta.media.0.codec.sample_fmt">fltp</property>
  <property name="meta.media.0.codec.sample_rate">32000</property>
  <property name="meta.media.0.codec.channels">1</property>
  <property name="meta.media.0.codec.name">aac</property>
  <property name="meta.media.0.codec.long_name">AAC (Advanced Audio Coding)</property>
  <property name="meta.media.0.codec.bit_rate">126263</property>
  <property name="meta.attr.0.stream.creation_time.markup">2021-03-05T16:17:27.000000Z</property>
  <property name="meta.attr.0.stream.handler_name.markup">AAC audio</property>
  <property name="meta.media.1.stream.type">video</property>
  <property name="meta.media.1.stream.frame_rate">25</property>
  <property name="meta.media.1.stream.sample_aspect_ratio">0</property>
  <property name="meta.media.1.codec.width">1920</property>
  <property name="meta.media.1.codec.height">1080</property>
  <property name="meta.media.1.codec.rotate">0</property>
  <property name="meta.media.1.codec.frame_rate">30000</property>
  <property name="meta.media.1.codec.pix_fmt">yuv420p</property>
  <property name="meta.media.1.codec.sample_aspect_ratio">0</property>
  <property name="meta.media.1.codec.colorspace">709</property>
  <property name="meta.media.1.codec.name">h264</property>
  <property name="meta.media.1.codec.long_name">H.264 / AVC / MPEG-4 AVC / MPEG-4 part 10</property>
  <property name="meta.media.1.codec.bit_rate">207296</property>
  <property name="meta.attr.1.stream.creation_time.markup">2021-03-05T16:17:27.000000Z</property>
  <property name="meta.attr.1.stream.handler_name.markup">H.264/AVC video</property>
  <property name="meta.attr.1.stream.encoder.markup">AVC Coding</property>
  <property name="meta.attr.major_brand.markup">mp42</property>
  <property name="meta.attr.minor_version.markup">0</property>
  <property name="meta.attr.compatible_brands.markup">isommp42</property>
  <property name="meta.attr.creation_time.markup">2021-03-05T16:17:27.000000Z</property>
  <property name="seekable">1</property>
  <property name="meta.media.sample_aspect_num">1</property>
  <property name="meta.media.sample_aspect_den">1</property>
  <property name="aspect_ratio">1</property>
  <property name="audio_index">0</property>
  <property name="video_index">1</property>
  <property name="mute_on_pause">0</property>
  <property name="mlt_service">avformat-novalidate</property>
  <property name="kdenlive:clipname"/>
  <property name="kdenlive:folderid">-1</property>
  <property name="meta.media.frame_rate_num">25</property>
  <property name="meta.media.frame_rate_den">1</property>
  <property name="meta.media.colorspace">709</property>
  <property name="meta.media.color_trc">2</property>
  <property name="meta.media.width">1920</property>
  <property name="meta.media.height">1080</property>
  <property name="meta.media.color_range">mpeg</property>
  <property name="kdenlive:id">3</property>
  <property name="kdenlive:file_size">1742787</property>
  <property name="kdenlive:file_hash">2902a4c77a732f07ca21f8f361bfbcc0</property>
  <property name="meta.media.top_field_first">0</property>
  <property name="meta.media.progressive">1</property>
  <property name="global_feed">1</property>
 </producer>
 <producer id="producer2" in="00:00:00,000" out="00:36:58,333">
  <property name="length">66551</property>
  <property name="eof">pause</property>
  <property name="resource">video_cut.mp4</property>
  <property name="meta.media.nb_streams">2</property>
  <property name="meta.media.0.stream.type">video</property>
  <property name="meta.media.0.stream.frame_rate">30</property>
  <property name="meta.media.0.stream.sample_aspect_ratio">1</property>
  <property name="meta.media.0.codec.width">1920</property>
  <property name="meta.media.0.codec.height">1080</property>
  <property name="meta.media.0.codec.rotate">0</property>
  <property name="meta.media.0.codec.frame_rate">30</property>
  <property name="meta.media.0.codec.pix_fmt">yuv420p</property>
  <property name="meta.media.0.codec.sample_aspect_ratio">1</property>
  <property name="meta.media.0.codec.colorspace">709</property>
  <property name="meta.media.0.codec.color_trc">1</property>
  <property name="meta.media.0.codec.name">h264</property>
  <property name="meta.media.0.codec.long_name">H.264 / AVC / MPEG-4 AVC / MPEG-4 part 10</property>
  <property name="meta.media.0.codec.bit_rate">1674144</property>
  <property name="meta.attr.0.stream.handler_name.markup">VideoHandler</property>
  <property name="meta.media.1.stream.type">audio</property>
  <property name="meta.media.1.codec.sample_fmt">fltp</property>
  <property name="meta.media.1.codec.sample_rate">48000</property>
  <property name="meta.media.1.codec.channels">2</property>
  <property name="meta.media.1.codec.name">aac</property>
  <property name="meta.media.1.codec.long_name">AAC (Advanced Audio Coding)</property>
  <property name="meta.media.1.codec.bit_rate">187062</property>
  <property name="meta.attr.1.stream.handler_name.markup">SoundHandler</property>
  <property name="meta.attr.major_brand.markup">isom</property>
  <property name="meta.attr.minor_version.markup">512</property>
  <property name="meta.attr.compatible_brands.markup">isomiso2avc1mp41</property>
  <property name="meta.attr.encoder.markup">Lavf58.20.100</property>
  <property name="seekable">1</property>
  <property name="meta.media.sample_aspect_num">1</property>
  <property name="meta.media.sample_aspect_den">1</property>
  <property name="aspect_ratio">1</property>
  <property name="audio_index">1</property>
  <property name="video_index">0</property>
  <property name="mute_on_pause">0</property>
  <property name="mlt_service">avformat-novalidate</property>
  <property name="kdenlive:clipname"/>
  <property name="kdenlive:folderid">-1</property>
  <property name="meta.media.frame_rate_num">30</property>
  <property name="meta.media.frame_rate_den">1</property>
  <property name="meta.media.colorspace">709</property>
  <property name="meta.media.color_trc">1</property>
  <property name="meta.media.width">1920</property>
  <property name="meta.media.height">1080</property>
  <property name="meta.media.color_range">mpeg</property>
  <property name="kdenlive:id">5</property>
  <property name="kdenlive:file_size">518420459</property>
  <property name="kdenlive:file_hash">d270fce60a62bc990e641eaeae1ead91</property>
  <property name="meta.media.top_field_first">0</property>
  <property name="meta.media.progressive">1</property>
  <property name="global_feed">1</property>
 </producer>
 <producer id="producer3" in="00:00:00,000" out="00:00:44,433">
  <property name="length">1334</property>
  <property name="eof">pause</property>
  <property name="resource">C:/Users/wimme/Documents/Zoom/2021-03-05 17.00.56 Persönlicher Meetingraum von Lisa Wimmer 5439630184/zoom_1.mp4</property>
  <property name="meta.media.nb_streams">2</property>
  <property name="meta.media.0.stream.type">audio</property>
  <property name="meta.media.0.codec.sample_fmt">fltp</property>
  <property name="meta.media.0.codec.sample_rate">32000</property>
  <property name="meta.media.0.codec.channels">1</property>
  <property name="meta.media.0.codec.name">aac</property>
  <property name="meta.media.0.codec.long_name">AAC (Advanced Audio Coding)</property>
  <property name="meta.media.0.codec.bit_rate">126250</property>
  <property name="meta.attr.0.stream.creation_time.markup">2021-03-05T16:03:17.000000Z</property>
  <property name="meta.attr.0.stream.handler_name.markup">AAC audio</property>
  <property name="meta.media.1.stream.type">video</property>
  <property name="meta.media.1.stream.frame_rate">25</property>
  <property name="meta.media.1.stream.sample_aspect_ratio">0</property>
  <property name="meta.media.1.codec.width">1920</property>
  <property name="meta.media.1.codec.height">1080</property>
  <property name="meta.media.1.codec.rotate">0</property>
  <property name="meta.media.1.codec.frame_rate">30000</property>
  <property name="meta.media.1.codec.pix_fmt">yuv420p</property>
  <property name="meta.media.1.codec.sample_aspect_ratio">0</property>
  <property name="meta.media.1.codec.colorspace">709</property>
  <property name="meta.media.1.codec.name">h264</property>
  <property name="meta.media.1.codec.long_name">H.264 / AVC / MPEG-4 AVC / MPEG-4 part 10</property>
  <property name="meta.media.1.codec.bit_rate">197441</property>
  <property name="meta.attr.1.stream.creation_time.markup">2021-03-05T16:03:17.000000Z</property>
  <property name="meta.attr.1.stream.handler_name.markup">H.264/AVC video</property>
  <property name="meta.attr.1.stream.encoder.markup">AVC Coding</property>
  <property name="meta.attr.major_brand.markup">mp42</property>
  <property name="meta.attr.minor_version.markup">0</property>
  <property name="meta.attr.compatible_brands.markup">isommp42</property>
  <property name="meta.attr.creation_time.markup">2021-03-05T16:03:17.000000Z</property>
  <property name="seekable">1</property>
  <property name="meta.media.sample_aspect_num">1</property>
  <property name="meta.media.sample_aspect_den">1</property>
  <property name="aspect_ratio">1</property>
  <property name="audio_index">0</property>
  <property name="video_index">1</property>
  <property name="mute_on_pause">0</property>
  <property name="mlt_service">avformat-novalidate</property>
  <property name="kdenlive:clipname"/>
  <property name="kdenlive:folderid">-1</property>
  <property name="meta.media.frame_rate_num">25</property>
  <property name="meta.media.frame_rate_den">1</property>
  <property name="meta.media.colorspace">709</property>
  <property name="meta.media.color_trc">2</property>
  <property name="meta.media.width">1920</property>
  <property name="meta.media.height">1080</property>
  <property name="meta.media.color_range">mpeg</property>
  <property name="kdenlive:id">6</property>
  <property name="kdenlive:file_size">1812369</property>
  <property name="kdenlive:file_hash">dc6604860f97288c7811ff267e5d3384</property>
  <property name="meta.media.top_field_first">0</property>
  <property name="meta.media.progressive">1</property>
  <property name="global_feed">1</property>
 </producer>
 <producer id="producer4" in="00:00:00,000" out="00:02:41,567">
  <property name="length">4848</property>
  <property name="eof">pause</property>
  <property name="resource">C:/Users/wimme/Documents/Zoom/2021-03-05 15.59.20 Persönlicher Meetingraum von Lisa Wimmer 5439630184/zoom_0.mp4</property>
  <property name="meta.media.nb_streams">2</property>
  <property name="meta.media.0.stream.type">audio</property>
  <property name="meta.media.0.codec.sample_fmt">fltp</property>
  <property name="meta.media.0.codec.sample_rate">32000</property>
  <property name="meta.media.0.codec.channels">1</property>
  <property name="meta.media.0.codec.name">aac</property>
  <property name="meta.media.0.codec.long_name">AAC (Advanced Audio Coding)</property>
  <property name="meta.media.0.codec.bit_rate">126250</property>
  <property name="meta.attr.0.stream.creation_time.markup">2021-03-05T15:03:15.000000Z</property>
  <property name="meta.attr.0.stream.handler_name.markup">AAC audio</property>
  <property name="meta.media.1.stream.type">video</property>
  <property name="meta.media.1.stream.frame_rate">25</property>
  <property name="meta.media.1.stream.sample_aspect_ratio">0</property>
  <property name="meta.media.1.codec.width">1920</property>
  <property name="meta.media.1.codec.height">1080</property>
  <property name="meta.media.1.codec.rotate">0</property>
  <property name="meta.media.1.codec.frame_rate">30000</property>
  <property name="meta.media.1.codec.pix_fmt">yuv420p</property>
  <property name="meta.media.1.codec.sample_aspect_ratio">0</property>
  <property name="meta.media.1.codec.colorspace">709</property>
  <property name="meta.media.1.codec.name">h264</property>
  <property name="meta.media.1.codec.long_name">H.264 / AVC / MPEG-4 AVC / MPEG-4 part 10</property>
  <property name="meta.media.1.codec.bit_rate">224043</property>
  <property name="meta.attr.1.stream.creation_time.markup">2021-03-05T15:03:15.000000Z</property>
  <property name="meta.attr.1.stream.handler_name.markup">H.264/AVC video</property>
  <property name="meta.attr.1.stream.encoder.markup">AVC Coding</property>
  <property name="meta.attr.major_brand.markup">mp42</property>
  <property name="meta.attr.minor_version.markup">0</property>
  <property name="meta.attr.compatible_brands.markup">isommp42</property>
  <property name="meta.attr.creation_time.markup">2021-03-05T15:03:15.000000Z</property>
  <property name="seekable">1</property>
  <property name="meta.media.sample_aspect_num">1</property>
  <property name="meta.media.sample_aspect_den">1</property>
  <property name="aspect_ratio">1</property>
  <property name="audio_index">0</property>
  <property name="video_index">1</property>
  <property name="mute_on_pause">0</property>
  <property name="mlt_service">avformat-novalidate</property>
  <property name="kdenlive:clipname"/>
  <property name="kdenlive:folderid">-1</property>
  <property name="meta.media.frame_rate_num">25</property>
  <property name="meta.media.frame_rate_den">1</property>
  <property name="meta.media.colorspace">709</property>
  <property name="meta.media.color_trc">2</property>
  <property name="meta.media.width">1920</property>
  <property name="meta.media.height">1080</property>
  <property name="meta.media.color_range">mpeg</property>
  <property name="kdenlive:id">8</property>
  <property name="kdenlive:file_size">7119832</property>
  <property name="kdenlive:file_hash">ef4194f0d212a9183c5e321f5da59b8c</property>
  <property name="meta.media.top_field_first">0</property>
  <property name="meta.media.progressive">1</property>
  <property name="global_feed">1</property>
 </producer>
 <producer id="producer5" in="00:00:00,000" out="00:01:43,933">
  <property name="length">3119</property>
  <property name="eof">pause</property>
  <property name="resource">C:/Users/wimme/Documents/Zoom/2021-03-05 17.10.38 Persönlicher Meetingraum von Lisa Wimmer 5439630184/zoom_0.mp4</property>
  <property name="meta.media.nb_streams">2</property>
  <property name="meta.media.0.stream.type">audio</property>
  <property name="meta.media.0.codec.sample_fmt">fltp</property>
  <property name="meta.media.0.codec.sample_rate">32000</property>
  <property name="meta.media.0.codec.channels">1</property>
  <property name="meta.media.0.codec.name">aac</property>
  <property name="meta.media.0.codec.long_name">AAC (Advanced Audio Coding)</property>
  <property name="meta.media.0.codec.bit_rate">126250</property>
  <property name="meta.attr.0.stream.creation_time.markup">2021-03-05T16:16:58.000000Z</property>
  <property name="meta.attr.0.stream.handler_name.markup">AAC audio</property>
  <property name="meta.media.1.stream.type">video</property>
  <property name="meta.media.1.stream.frame_rate">25</property>
  <property name="meta.media.1.stream.sample_aspect_ratio">0</property>
  <property name="meta.media.1.codec.width">1920</property>
  <property name="meta.media.1.codec.height">1080</property>
  <property name="meta.media.1.codec.rotate">0</property>
  <property name="meta.media.1.codec.frame_rate">30000</property>
  <property name="meta.media.1.codec.pix_fmt">yuv420p</property>
  <property name="meta.media.1.codec.sample_aspect_ratio">0</property>
  <property name="meta.media.1.codec.colorspace">709</property>
  <property name="meta.media.1.codec.name">h264</property>
  <property name="meta.media.1.codec.long_name">H.264 / AVC / MPEG-4 AVC / MPEG-4 part 10</property>
  <property name="meta.media.1.codec.bit_rate">144675</property>
  <property name="meta.attr.1.stream.creation_time.markup">2021-03-05T16:16:58.000000Z</property>
  <property name="meta.attr.1.stream.handler_name.markup">H.264/AVC video</property>
  <property name="meta.attr.1.stream.encoder.markup">AVC Coding</property>
  <property name="meta.attr.major_brand.markup">mp42</property>
  <property name="meta.attr.minor_version.markup">0</property>
  <property name="meta.attr.compatible_brands.markup">isommp42</property>
  <property name="meta.attr.creation_time.markup">2021-03-05T16:16:58.000000Z</property>
  <property name="seekable">1</property>
  <property name="meta.media.sample_aspect_num">1</property>
  <property name="meta.media.sample_aspect_den">1</property>
  <property name="aspect_ratio">1</property>
  <property name="audio_index">0</property>
  <property name="video_index">1</property>
  <property name="mute_on_pause">0</property>
  <property name="mlt_service">avformat-novalidate</property>
  <property name="kdenlive:clipname"/>
  <property name="kdenlive:folderid">-1</property>
  <property name="meta.media.frame_rate_num">25</property>
  <property name="meta.media.frame_rate_den">1</property>
  <property name="meta.media.colorspace">709</property>
  <property name="meta.media.color_trc">2</property>
  <property name="meta.media.width">1920</property>
  <property name="meta.media.height">1080</property>
  <property name="meta.media.color_range">mpeg</property>
  <property name="kdenlive:id">9</property>
  <property name="kdenlive:file_size">3549328</property>
  <property name="kdenlive:file_hash">354d86440f04590c289082e9d2af1c35</property>
  <property name="meta.media.top_field_first">0</property>
  <property name="meta.media.progressive">1</property>
  <property name="global_feed">1</property>
 </producer>
 <playlist id="main_bin">
  <property name="kdenlive:docproperties.activeTrack">3</property>
  <property name="kdenlive:docproperties.audioTarget">1</property>
  <property name="kdenlive:docproperties.decimalPoint">,</property>
  <property name="kdenlive:docproperties.disablepreview">0</property>
  <property name="kdenlive:docproperties.documentid">1614961044921</property>
  <property name="kdenlive:docproperties.enableTimelineZone">0</property>
  <property name="kdenlive:docproperties.enableexternalproxy">0</property>
  <property name="kdenlive:docproperties.enableproxy">0</property>
  <property name="kdenlive:docproperties.externalproxyparams">../Sub;;S03.MP4;../Clip;;.MXF</property>
  <property name="kdenlive:docproperties.generateimageproxy">0</property>
  <property name="kdenlive:docproperties.generateproxy">0</property>
  <property name="kdenlive:docproperties.kdenliveversion">20.04.1</property>
  <property name="kdenlive:docproperties.position">50665</property>
  <property name="kdenlive:docproperties.previewextension"/>
  <property name="kdenlive:docproperties.previewparameters"/>
  <property name="kdenlive:docproperties.profile">atsc_1080p_30</property>
  <property name="kdenlive:docproperties.proxyextension"/>
  <property name="kdenlive:docproperties.proxyimageminsize">2000</property>
  <property name="kdenlive:docproperties.proxyimagesize">800</property>
  <property name="kdenlive:docproperties.proxyminsize">1000</property>
  <property name="kdenlive:docproperties.proxyparams"/>
  <property name="kdenlive:docproperties.scrollPos">53386</property>
  <property name="kdenlive:docproperties.seekOffset">30000</property>
  <property name="kdenlive:docproperties.version">0.99</property>
  <property name="kdenlive:docproperties.verticalzoom">1</property>
  <property name="kdenlive:docproperties.videoTarget">2</property>
  <property name="kdenlive:docproperties.zonein">50555</property>
  <property name="kdenlive:docproperties.zoneout">50698</property>
  <property name="kdenlive:docproperties.zoom">6</property>
  <property name="kdenlive:documentnotes"/>
  <property name="kdenlive:docproperties.groups">[
    {
        "children": [
            {
                "data": "3:13748",
                "leaf": "clip",
                "type": "Leaf"
            },
            {
                "data": "0:13748",
                "leaf": "clip",
                "type": "Leaf"
            }
        ],
        "type": "AVSplit"
    },
    {
        "children": [
            {
                "data": "0:12576",
                "leaf": "clip",
                "type": "Leaf"
            },
            {
                "data": "3:12576",
                "leaf": "clip",
                "type": "Leaf"
            }
        ],
        "type": "AVSplit"
    },
    {
        "children": [
            {
                "data": "3:49611",
                "leaf": "clip",
                "type": "Leaf"
            },
            {
                "data": "0:49611",
                "leaf": "clip",
                "type": "Leaf"
            }
        ],
        "type": "AVSplit"
    },
    {
        "children": [
            {
                "data": "0:32138",
                "leaf": "clip",
                "type": "Leaf"
            },
            {
                "data": "3:32138",
                "leaf": "clip",
                "type": "Leaf"
            }
        ],
        "type": "AVSplit"
    },
    {
        "children": [
            {
                "data": "3:32221",
                "leaf": "clip",
                "type": "Leaf"
            },
            {
                "data": "0:32221",
                "leaf": "clip",
                "type": "Leaf"
            }
        ],
        "type": "AVSplit"
    },
    {
        "children": [
            {
                "data": "0:50555",
                "leaf": "clip",
                "type": "Leaf"
            },
            {
                "data": "3:50555",
                "leaf": "clip",
                "type": "Leaf"
            }
        ],
        "type": "AVSplit"
    },
    {
        "children": [
            {
                "data": "0:29375",
                "leaf": "clip",
                "type": "Leaf"
            },
            {
                "data": "3:29375",
                "leaf": "clip",
                "type": "Leaf"
            }
        ],
        "type": "AVSplit"
    },
    {
        "children": [
            {
                "data": "3:0",
                "leaf": "clip",
                "type": "Leaf"
            },
            {
                "data": "0:0",
                "leaf": "clip",
                "type": "Leaf"
            }
        ],
        "type": "AVSplit"
    }
]
</property>
  <property name="kdenlive:docproperties.guides">[
    {
        "comment": "guide",
        "pos": 429,
        "type": 0
    },
    {
        "comment": "guide",
        "pos": 12579,
        "type": 0
    }
]
</property>
  <property name="kdenlive:docproperties.renderaudioquality">192</property>
  <property name="kdenlive:docproperties.rendercategory">Generic (HD for web, mobile devices...)</property>
  <property name="kdenlive:docproperties.renderendguide">1</property>
  <property name="kdenlive:docproperties.renderexportaudio">0</property>
  <property name="kdenlive:docproperties.renderfield">0</property>
  <property name="kdenlive:docproperties.renderguide">0</property>
  <property name="kdenlive:docproperties.renderplay">0</property>
  <property name="kdenlive:docproperties.renderprofile">MP4 - the dominating format (H264/AAC)</property>
  <property name="kdenlive:docproperties.renderquality">23</property>
  <property name="kdenlive:docproperties.renderratio">1</property>
  <property name="kdenlive:docproperties.renderrescale">0</property>
  <property name="kdenlive:docproperties.renderrescaleheight">540</property>
  <property name="kdenlive:docproperties.renderrescalewidth">960</property>
  <property name="kdenlive:docproperties.renderscanning">0</property>
  <property name="kdenlive:docproperties.renderspeed">2</property>
  <property name="kdenlive:docproperties.renderstartguide">0</property>
  <property name="kdenlive:docproperties.rendertcoverlay">0</property>
  <property name="kdenlive:docproperties.rendertctype">0</property>
  <property name="kdenlive:docproperties.rendertwopass">0</property>
  <property name="kdenlive:docproperties.renderurl">video_cut_2.mp4</property>
  <property name="kdenlive:docproperties.renderzone">0</property>
  <property name="xml_retain">1</property>
  <entry producer="producer0" in="00:00:00,000" out="00:00:44,433"/>
  <entry producer="producer1" in="00:00:00,000" out="00:00:41,500"/>
  <entry producer="producer2" in="00:00:00,000" out="00:36:58,333"/>
  <entry producer="producer3" in="00:00:00,000" out="00:00:44,433"/>
  <entry producer="producer4" in="00:00:00,000" out="00:02:41,567"/>
  <entry producer="producer5" in="00:00:00,000" out="00:01:43,933"/>
 </playlist>
 <producer id="black_track" in="00:00:00,000" out="00:55:34,733">
  <property name="length">2147483647</property>
  <property name="eof">continue</property>
  <property name="resource">black</property>
  <property name="aspect_ratio">1</property>
  <property name="mlt_service">color</property>
  <property name="mlt_image_format">rgb24a</property>
  <property name="set.test_audio">0</property>
 </producer>
 <producer id="producer6" in="00:00:00,000" out="00:36:58,333">
  <property name="length">66551</property>
  <property name="eof">pause</property>
  <property name="resource">video_cut.mp4</property>
  <property name="audio_index">1</property>
  <property name="video_index">0</property>
  <property name="mute_on_pause">0</property>
  <property name="mlt_service">avformat-novalidate</property>
  <property name="seekable">1</property>
  <property name="aspect_ratio">1</property>
  <property name="kdenlive:clipname"/>
  <property name="kdenlive:folderid">-1</property>
  <property name="kdenlive:id">5</property>
  <property name="kdenlive:file_size">518420459</property>
  <property name="kdenlive:file_hash">d270fce60a62bc990e641eaeae1ead91</property>
  <property name="global_feed">1</property>
  <property name="xml">was here</property>
  <property name="meta.media.nb_streams">2</property>
  <property name="meta.media.0.stream.type">video</property>
  <property name="meta.media.0.stream.frame_rate">30</property>
  <property name="meta.media.0.stream.sample_aspect_ratio">1</property>
  <property name="meta.media.0.codec.width">1920</property>
  <property name="meta.media.0.codec.height">1080</property>
  <property name="meta.media.0.codec.rotate">0</property>
  <property name="meta.media.0.codec.frame_rate">30</property>
  <property name="meta.media.0.codec.pix_fmt">yuv420p</property>
  <property name="meta.media.0.codec.sample_aspect_ratio">1</property>
  <property name="meta.media.0.codec.colorspace">709</property>
  <property name="meta.media.0.codec.color_trc">1</property>
  <property name="meta.media.0.codec.name">h264</property>
  <property name="meta.media.0.codec.long_name">H.264 / AVC / MPEG-4 AVC / MPEG-4 part 10</property>
  <property name="meta.media.0.codec.bit_rate">1674144</property>
  <property name="meta.attr.0.stream.handler_name.markup">VideoHandler</property>
  <property name="meta.media.1.stream.type">audio</property>
  <property name="meta.media.1.codec.sample_fmt">fltp</property>
  <property name="meta.media.1.codec.sample_rate">48000</property>
  <property name="meta.media.1.codec.channels">2</property>
  <property name="meta.media.1.codec.name">aac</property>
  <property name="meta.media.1.codec.long_name">AAC (Advanced Audio Coding)</property>
  <property name="meta.media.1.codec.bit_rate">187062</property>
  <property name="meta.attr.1.stream.handler_name.markup">SoundHandler</property>
  <property name="meta.attr.major_brand.markup">isom</property>
  <property name="meta.attr.minor_version.markup">512</property>
  <property name="meta.attr.compatible_brands.markup">isomiso2avc1mp41</property>
  <property name="meta.attr.encoder.markup">Lavf58.20.100</property>
  <property name="meta.media.sample_aspect_num">1</property>
  <property name="meta.media.sample_aspect_den">1</property>
  <property name="meta.media.frame_rate_num">30</property>
  <property name="meta.media.frame_rate_den">1</property>
  <property name="meta.media.colorspace">709</property>
  <property name="meta.media.color_trc">1</property>
  <property name="meta.media.width">1920</property>
  <property name="meta.media.height">1080</property>
  <property name="meta.media.color_range">mpeg</property>
  <property name="meta.media.top_field_first">0</property>
  <property name="meta.media.progressive">1</property>
  <property name="set.test_audio">0</property>
  <property name="set.test_image">1</property>
 </producer>
 <producer id="producer7" in="00:00:00,000" out="00:00:44,433">
  <property name="length">1334</property>
  <property name="eof">pause</property>
  <property name="resource">C:/Users/wimme/Documents/Zoom/2021-03-05 17.00.56 Persönlicher Meetingraum von Lisa Wimmer 5439630184/zoom_1.mp4</property>
  <property name="audio_index">0</property>
  <property name="video_index">1</property>
  <property name="mute_on_pause">0</property>
  <property name="mlt_service">avformat-novalidate</property>
  <property name="seekable">1</property>
  <property name="aspect_ratio">1</property>
  <property name="kdenlive:clipname"/>
  <property name="kdenlive:folderid">-1</property>
  <property name="kdenlive:id">2</property>
  <property name="kdenlive:file_size">1812369</property>
  <property name="kdenlive:file_hash">dc6604860f97288c7811ff267e5d3384</property>
  <property name="global_feed">1</property>
  <property name="xml">was here</property>
  <property name="meta.media.nb_streams">2</property>
  <property name="meta.media.0.stream.type">audio</property>
  <property name="meta.media.0.codec.sample_fmt">fltp</property>
  <property name="meta.media.0.codec.sample_rate">32000</property>
  <property name="meta.media.0.codec.channels">1</property>
  <property name="meta.media.0.codec.name">aac</property>
  <property name="meta.media.0.codec.long_name">AAC (Advanced Audio Coding)</property>
  <property name="meta.media.0.codec.bit_rate">126250</property>
  <property name="meta.attr.0.stream.creation_time.markup">2021-03-05T16:03:17.000000Z</property>
  <property name="meta.attr.0.stream.handler_name.markup">AAC audio</property>
  <property name="meta.media.1.stream.type">video</property>
  <property name="meta.media.1.stream.frame_rate">25</property>
  <property name="meta.media.1.stream.sample_aspect_ratio">0</property>
  <property name="meta.media.1.codec.width">1920</property>
  <property name="meta.media.1.codec.height">1080</property>
  <property name="meta.media.1.codec.rotate">0</property>
  <property name="meta.media.1.codec.frame_rate">30000</property>
  <property name="meta.media.1.codec.pix_fmt">yuv420p</property>
  <property name="meta.media.1.codec.sample_aspect_ratio">0</property>
  <property name="meta.media.1.codec.colorspace">709</property>
  <property name="meta.media.1.codec.name">h264</property>
  <property name="meta.media.1.codec.long_name">H.264 / AVC / MPEG-4 AVC / MPEG-4 part 10</property>
  <property name="meta.media.1.codec.bit_rate">197441</property>
  <property name="meta.attr.1.stream.creation_time.markup">2021-03-05T16:03:17.000000Z</property>
  <property name="meta.attr.1.stream.handler_name.markup">H.264/AVC video</property>
  <property name="meta.attr.1.stream.encoder.markup">AVC Coding</property>
  <property name="meta.attr.major_brand.markup">mp42</property>
  <property name="meta.attr.minor_version.markup">0</property>
  <property name="meta.attr.compatible_brands.markup">isommp42</property>
  <property name="meta.attr.creation_time.markup">2021-03-05T16:03:17.000000Z</property>
  <property name="meta.media.sample_aspect_num">1</property>
  <property name="meta.media.sample_aspect_den">1</property>
  <property name="meta.media.frame_rate_num">25</property>
  <property name="meta.media.frame_rate_den">1</property>
  <property name="meta.media.colorspace">709</property>
  <property name="meta.media.color_trc">2</property>
  <property name="meta.media.width">1920</property>
  <property name="meta.media.height">1080</property>
  <property name="meta.media.color_range">mpeg</property>
  <property name="meta.media.top_field_first">0</property>
  <property name="meta.media.progressive">1</property>
  <property name="set.test_audio">0</property>
  <property name="set.test_image">1</property>
 </producer>
 <producer id="producer8" in="00:00:00,000" out="00:01:43,933">
  <property name="length">3119</property>
  <property name="eof">pause</property>
  <property name="resource">C:/Users/wimme/Documents/Zoom/2021-03-05 17.10.38 Persönlicher Meetingraum von Lisa Wimmer 5439630184/zoom_0.mp4</property>
  <property name="audio_index">0</property>
  <property name="video_index">1</property>
  <property name="mute_on_pause">0</property>
  <property name="mlt_service">avformat-novalidate</property>
  <property name="seekable">1</property>
  <property name="aspect_ratio">1</property>
  <property name="kdenlive:clipname"/>
  <property name="kdenlive:folderid">-1</property>
  <property name="kdenlive:id">9</property>
  <property name="kdenlive:file_size">3549328</property>
  <property name="kdenlive:file_hash">354d86440f04590c289082e9d2af1c35</property>
  <property name="global_feed">1</property>
  <property name="xml">was here</property>
  <property name="meta.media.nb_streams">2</property>
  <property name="meta.media.0.stream.type">audio</property>
  <property name="meta.media.0.codec.sample_fmt">fltp</property>
  <property name="meta.media.0.codec.sample_rate">32000</property>
  <property name="meta.media.0.codec.channels">1</property>
  <property name="meta.media.0.codec.name">aac</property>
  <property name="meta.media.0.codec.long_name">AAC (Advanced Audio Coding)</property>
  <property name="meta.media.0.codec.bit_rate">126250</property>
  <property name="meta.attr.0.stream.creation_time.markup">2021-03-05T16:16:58.000000Z</property>
  <property name="meta.attr.0.stream.handler_name.markup">AAC audio</property>
  <property name="meta.media.1.stream.type">video</property>
  <property name="meta.media.1.stream.frame_rate">25</property>
  <property name="meta.media.1.stream.sample_aspect_ratio">0</property>
  <property name="meta.media.1.codec.width">1920</property>
  <property name="meta.media.1.codec.height">1080</property>
  <property name="meta.media.1.codec.rotate">0</property>
  <property name="meta.media.1.codec.frame_rate">30000</property>
  <property name="meta.media.1.codec.pix_fmt">yuv420p</property>
  <property name="meta.media.1.codec.sample_aspect_ratio">0</property>
  <property name="meta.media.1.codec.colorspace">709</property>
  <property name="meta.media.1.codec.name">h264</property>
  <property name="meta.media.1.codec.long_name">H.264 / AVC / MPEG-4 AVC / MPEG-4 part 10</property>
  <property name="meta.media.1.codec.bit_rate">144675</property>
  <property name="meta.attr.1.stream.creation_time.markup">2021-03-05T16:16:58.000000Z</property>
  <property name="meta.attr.1.stream.handler_name.markup">H.264/AVC video</property>
  <property name="meta.attr.1.stream.encoder.markup">AVC Coding</property>
  <property name="meta.attr.major_brand.markup">mp42</property>
  <property name="meta.attr.minor_version.markup">0</property>
  <property name="meta.attr.compatible_brands.markup">isommp42</property>
  <property name="meta.attr.creation_time.markup">2021-03-05T16:16:58.000000Z</property>
  <property name="meta.media.sample_aspect_num">1</property>
  <property name="meta.media.sample_aspect_den">1</property>
  <property name="meta.media.frame_rate_num">25</property>
  <property name="meta.media.frame_rate_den">1</property>
  <property name="meta.media.colorspace">709</property>
  <property name="meta.media.color_trc">2</property>
  <property name="meta.media.width">1920</property>
  <property name="meta.media.height">1080</property>
  <property name="meta.media.color_range">mpeg</property>
  <property name="meta.media.top_field_first">0</property>
  <property name="meta.media.progressive">1</property>
  <property name="set.test_audio">0</property>
  <property name="set.test_image">1</property>
 </producer>
 <producer id="producer9" in="00:00:00,000" out="00:00:41,500">
  <property name="length">1246</property>
  <property name="eof">pause</property>
  <property name="resource">C:/Users/wimme/Documents/Zoom/2021-03-05 17.10.38 Persönlicher Meetingraum von Lisa Wimmer 5439630184/zoom_2.mp4</property>
  <property name="audio_index">0</property>
  <property name="video_index">1</property>
  <property name="mute_on_pause">0</property>
  <property name="mlt_service">avformat-novalidate</property>
  <property name="seekable">1</property>
  <property name="aspect_ratio">1</property>
  <property name="kdenlive:clipname"/>
  <property name="kdenlive:folderid">-1</property>
  <property name="kdenlive:id">3</property>
  <property name="kdenlive:file_size">1742787</property>
  <property name="kdenlive:file_hash">2902a4c77a732f07ca21f8f361bfbcc0</property>
  <property name="global_feed">1</property>
  <property name="xml">was here</property>
  <property name="meta.media.nb_streams">2</property>
  <property name="meta.media.0.stream.type">audio</property>
  <property name="meta.media.0.codec.sample_fmt">fltp</property>
  <property name="meta.media.0.codec.sample_rate">32000</property>
  <property name="meta.media.0.codec.channels">1</property>
  <property name="meta.media.0.codec.name">aac</property>
  <property name="meta.media.0.codec.long_name">AAC (Advanced Audio Coding)</property>
  <property name="meta.media.0.codec.bit_rate">126263</property>
  <property name="meta.attr.0.stream.creation_time.markup">2021-03-05T16:17:27.000000Z</property>
  <property name="meta.attr.0.stream.handler_name.markup">AAC audio</property>
  <property name="meta.media.1.stream.type">video</property>
  <property name="meta.media.1.stream.frame_rate">25</property>
  <property name="meta.media.1.stream.sample_aspect_ratio">0</property>
  <property name="meta.media.1.codec.width">1920</property>
  <property name="meta.media.1.codec.height">1080</property>
  <property name="meta.media.1.codec.rotate">0</property>
  <property name="meta.media.1.codec.frame_rate">30000</property>
  <property name="meta.media.1.codec.pix_fmt">yuv420p</property>
  <property name="meta.media.1.codec.sample_aspect_ratio">0</property>
  <property name="meta.media.1.codec.colorspace">709</property>
  <property name="meta.media.1.codec.name">h264</property>
  <property name="meta.media.1.codec.long_name">H.264 / AVC / MPEG-4 AVC / MPEG-4 part 10</property>
  <property name="meta.media.1.codec.bit_rate">207296</property>
  <property name="meta.attr.1.stream.creation_time.markup">2021-03-05T16:17:27.000000Z</property>
  <property name="meta.attr.1.stream.handler_name.markup">H.264/AVC video</property>
  <property name="meta.attr.1.stream.encoder.markup">AVC Coding</property>
  <property name="meta.attr.major_brand.markup">mp42</property>
  <property name="meta.attr.minor_version.markup">0</property>
  <property name="meta.attr.compatible_brands.markup">isommp42</property>
  <property name="meta.attr.creation_time.markup">2021-03-05T16:17:27.000000Z</property>
  <property name="meta.media.sample_aspect_num">1</property>
  <property name="meta.media.sample_aspect_den">1</property>
  <property name="meta.media.frame_rate_num">25</property>
  <property name="meta.media.frame_rate_den">1</property>
  <property name="meta.media.colorspace">709</property>
  <property name="meta.media.color_trc">2</property>
  <property name="meta.media.width">1920</property>
  <property name="meta.media.height">1080</property>
  <property name="meta.media.color_range">mpeg</property>
  <property name="meta.media.top_field_first">0</property>
  <property name="meta.media.progressive">1</property>
  <property name="set.test_audio">0</property>
  <property name="set.test_image">1</property>
 </producer>
 <playlist id="playlist0">
  <property name="kdenlive:audio_track">1</property>
  <entry producer="producer6" in="00:00:00,000" out="00:06:59,167">
   <property name="kdenlive:id">5</property>
  </entry>
  <entry producer="producer7" in="00:00:02,967" out="00:00:42,000">
   <property name="kdenlive:id">2</property>
  </entry>
  <entry producer="producer6" in="00:06:59,300" out="00:15:40,167">
   <property name="kdenlive:id">5</property>
  </entry>
  <entry producer="producer8" in="00:00:03,000" out="00:01:35,067">
   <property name="kdenlive:id">9</property>
  </entry>
  <entry producer="producer8" in="00:01:36,767" out="00:01:39,500">
   <property name="kdenlive:id">9</property>
  </entry>
  <entry producer="producer6" in="00:16:29,067" out="00:26:08,700">
   <property name="kdenlive:id">5</property>
  </entry>
  <entry producer="producer9" in="00:00:03,100" out="00:00:34,533">
   <property name="kdenlive:id">3</property>
  </entry>
  <entry producer="producer6" in="00:26:08,800" out="00:36:58,333">
   <property name="kdenlive:id">5</property>
  </entry>
 </playlist>
 <playlist id="playlist1">
  <property name="kdenlive:audio_track">1</property>
 </playlist>
 <tractor id="tractor0" in="00:00:00,000" out="00:38:54,700">
  <property name="kdenlive:audio_track">1</property>
  <property name="kdenlive:trackheight">69</property>
  <property name="kdenlive:collapsed">0</property>
  <property name="kdenlive:thumbs_format"/>
  <property name="kdenlive:audio_rec"/>
  <property name="kdenlive:timeline_active">1</property>
  <track hide="video" producer="playlist0"/>
  <track hide="video" producer="playlist1"/>
  <filter id="filter0">
   <property name="window">75</property>
   <property name="max_gain">20dB</property>
   <property name="mlt_service">volume</property>
   <property name="internal_added">237</property>
   <property name="disable">1</property>
  </filter>
  <filter id="filter1">
   <property name="channel">-1</property>
   <property name="mlt_service">panner</property>
   <property name="internal_added">237</property>
   <property name="start">0,5</property>
   <property name="disable">1</property>
  </filter>
  <filter id="filter2">
   <property name="iec_scale">0</property>
   <property name="mlt_service">audiolevel</property>
   <property name="disable">1</property>
  </filter>
 </tractor>
 <playlist id="playlist2">
  <property name="kdenlive:audio_track">1</property>
 </playlist>
 <playlist id="playlist3">
  <property name="kdenlive:audio_track">1</property>
 </playlist>
 <tractor id="tractor1" in="00:00:00,000">
  <property name="kdenlive:audio_track">1</property>
  <property name="kdenlive:trackheight">69</property>
  <property name="kdenlive:collapsed">0</property>
  <property name="kdenlive:thumbs_format"/>
  <property name="kdenlive:audio_rec"/>
  <property name="kdenlive:timeline_active">1</property>
  <track hide="video" producer="playlist2"/>
  <track hide="video" producer="playlist3"/>
  <filter id="filter3">
   <property name="window">75</property>
   <property name="max_gain">20dB</property>
   <property name="mlt_service">volume</property>
   <property name="internal_added">237</property>
   <property name="disable">1</property>
  </filter>
  <filter id="filter4">
   <property name="channel">-1</property>
   <property name="mlt_service">panner</property>
   <property name="internal_added">237</property>
   <property name="start">0,5</property>
   <property name="disable">1</property>
  </filter>
  <filter id="filter5">
   <property name="iec_scale">0</property>
   <property name="mlt_service">audiolevel</property>
   <property name="disable">1</property>
  </filter>
 </tractor>
 <playlist id="playlist4"/>
 <playlist id="playlist5"/>
 <tractor id="tractor2" in="00:00:00,000">
  <property name="kdenlive:trackheight">69</property>
  <property name="kdenlive:collapsed">0</property>
  <property name="kdenlive:thumbs_format"/>
  <property name="kdenlive:audio_rec"/>
  <property name="kdenlive:timeline_active">1</property>
  <track hide="audio" producer="playlist4"/>
  <track hide="audio" producer="playlist5"/>
 </tractor>
 <producer id="producer10" in="00:00:00,000" out="00:36:58,333">
  <property name="length">66551</property>
  <property name="eof">pause</property>
  <property name="resource">video_cut.mp4</property>
  <property name="audio_index">1</property>
  <property name="video_index">0</property>
  <property name="mute_on_pause">0</property>
  <property name="mlt_service">avformat-novalidate</property>
  <property name="seekable">1</property>
  <property name="aspect_ratio">1</property>
  <property name="kdenlive:clipname"/>
  <property name="kdenlive:folderid">-1</property>
  <property name="kdenlive:id">5</property>
  <property name="kdenlive:file_size">518420459</property>
  <property name="kdenlive:file_hash">d270fce60a62bc990e641eaeae1ead91</property>
  <property name="global_feed">1</property>
  <property name="xml">was here</property>
  <property name="meta.media.nb_streams">2</property>
  <property name="meta.media.0.stream.type">video</property>
  <property name="meta.media.0.stream.frame_rate">30</property>
  <property name="meta.media.0.stream.sample_aspect_ratio">1</property>
  <property name="meta.media.0.codec.width">1920</property>
  <property name="meta.media.0.codec.height">1080</property>
  <property name="meta.media.0.codec.rotate">0</property>
  <property name="meta.media.0.codec.frame_rate">30</property>
  <property name="meta.media.0.codec.pix_fmt">yuv420p</property>
  <property name="meta.media.0.codec.sample_aspect_ratio">1</property>
  <property name="meta.media.0.codec.colorspace">709</property>
  <property name="meta.media.0.codec.color_trc">1</property>
  <property name="meta.media.0.codec.name">h264</property>
  <property name="meta.media.0.codec.long_name">H.264 / AVC / MPEG-4 AVC / MPEG-4 part 10</property>
  <property name="meta.media.0.codec.bit_rate">1674144</property>
  <property name="meta.attr.0.stream.handler_name.markup">VideoHandler</property>
  <property name="meta.media.1.stream.type">audio</property>
  <property name="meta.media.1.codec.sample_fmt">fltp</property>
  <property name="meta.media.1.codec.sample_rate">48000</property>
  <property name="meta.media.1.codec.channels">2</property>
  <property name="meta.media.1.codec.name">aac</property>
  <property name="meta.media.1.codec.long_name">AAC (Advanced Audio Coding)</property>
  <property name="meta.media.1.codec.bit_rate">187062</property>
  <property name="meta.attr.1.stream.handler_name.markup">SoundHandler</property>
  <property name="meta.attr.major_brand.markup">isom</property>
  <property name="meta.attr.minor_version.markup">512</property>
  <property name="meta.attr.compatible_brands.markup">isomiso2avc1mp41</property>
  <property name="meta.attr.encoder.markup">Lavf58.20.100</property>
  <property name="meta.media.sample_aspect_num">1</property>
  <property name="meta.media.sample_aspect_den">1</property>
  <property name="meta.media.frame_rate_num">30</property>
  <property name="meta.media.frame_rate_den">1</property>
  <property name="meta.media.colorspace">709</property>
  <property name="meta.media.color_trc">1</property>
  <property name="meta.media.width">1920</property>
  <property name="meta.media.height">1080</property>
  <property name="meta.media.color_range">mpeg</property>
  <property name="meta.media.top_field_first">0</property>
  <property name="meta.media.progressive">1</property>
  <property name="set.test_audio">1</property>
  <property name="set.test_image">0</property>
 </producer>
 <producer id="producer11" in="00:00:00,000" out="00:00:44,433">
  <property name="length">1334</property>
  <property name="eof">pause</property>
  <property name="resource">C:/Users/wimme/Documents/Zoom/2021-03-05 17.00.56 Persönlicher Meetingraum von Lisa Wimmer 5439630184/zoom_1.mp4</property>
  <property name="audio_index">0</property>
  <property name="video_index">1</property>
  <property name="mute_on_pause">0</property>
  <property name="mlt_service">avformat-novalidate</property>
  <property name="seekable">1</property>
  <property name="aspect_ratio">1</property>
  <property name="kdenlive:clipname"/>
  <property name="kdenlive:folderid">-1</property>
  <property name="kdenlive:id">2</property>
  <property name="kdenlive:file_size">1812369</property>
  <property name="kdenlive:file_hash">dc6604860f97288c7811ff267e5d3384</property>
  <property name="global_feed">1</property>
  <property name="xml">was here</property>
  <property name="meta.media.nb_streams">2</property>
  <property name="meta.media.0.stream.type">audio</property>
  <property name="meta.media.0.codec.sample_fmt">fltp</property>
  <property name="meta.media.0.codec.sample_rate">32000</property>
  <property name="meta.media.0.codec.channels">1</property>
  <property name="meta.media.0.codec.name">aac</property>
  <property name="meta.media.0.codec.long_name">AAC (Advanced Audio Coding)</property>
  <property name="meta.media.0.codec.bit_rate">126250</property>
  <property name="meta.attr.0.stream.creation_time.markup">2021-03-05T16:03:17.000000Z</property>
  <property name="meta.attr.0.stream.handler_name.markup">AAC audio</property>
  <property name="meta.media.1.stream.type">video</property>
  <property name="meta.media.1.stream.frame_rate">25</property>
  <property name="meta.media.1.stream.sample_aspect_ratio">0</property>
  <property name="meta.media.1.codec.width">1920</property>
  <property name="meta.media.1.codec.height">1080</property>
  <property name="meta.media.1.codec.rotate">0</property>
  <property name="meta.media.1.codec.frame_rate">30000</property>
  <property name="meta.media.1.codec.pix_fmt">yuv420p</property>
  <property name="meta.media.1.codec.sample_aspect_ratio">0</property>
  <property name="meta.media.1.codec.colorspace">709</property>
  <property name="meta.media.1.codec.name">h264</property>
  <property name="meta.media.1.codec.long_name">H.264 / AVC / MPEG-4 AVC / MPEG-4 part 10</property>
  <property name="meta.media.1.codec.bit_rate">197441</property>
  <property name="meta.attr.1.stream.creation_time.markup">2021-03-05T16:03:17.000000Z</property>
  <property name="meta.attr.1.stream.handler_name.markup">H.264/AVC video</property>
  <property name="meta.attr.1.stream.encoder.markup">AVC Coding</property>
  <property name="meta.attr.major_brand.markup">mp42</property>
  <property name="meta.attr.minor_version.markup">0</property>
  <property name="meta.attr.compatible_brands.markup">isommp42</property>
  <property name="meta.attr.creation_time.markup">2021-03-05T16:03:17.000000Z</property>
  <property name="meta.media.sample_aspect_num">1</property>
  <property name="meta.media.sample_aspect_den">1</property>
  <property name="meta.media.frame_rate_num">25</property>
  <property name="meta.media.frame_rate_den">1</property>
  <property name="meta.media.colorspace">709</property>
  <property name="meta.media.color_trc">2</property>
  <property name="meta.media.width">1920</property>
  <property name="meta.media.height">1080</property>
  <property name="meta.media.color_range">mpeg</property>
  <property name="meta.media.top_field_first">0</property>
  <property name="meta.media.progressive">1</property>
  <property name="set.test_audio">1</property>
  <property name="set.test_image">0</property>
 </producer>
 <producer id="producer12" in="00:00:00,000" out="00:01:43,933">
  <property name="length">3119</property>
  <property name="eof">pause</property>
  <property name="resource">C:/Users/wimme/Documents/Zoom/2021-03-05 17.10.38 Persönlicher Meetingraum von Lisa Wimmer 5439630184/zoom_0.mp4</property>
  <property name="audio_index">0</property>
  <property name="video_index">1</property>
  <property name="mute_on_pause">0</property>
  <property name="mlt_service">avformat-novalidate</property>
  <property name="seekable">1</property>
  <property name="aspect_ratio">1</property>
  <property name="kdenlive:clipname"/>
  <property name="kdenlive:folderid">-1</property>
  <property name="kdenlive:id">9</property>
  <property name="kdenlive:file_size">3549328</property>
  <property name="kdenlive:file_hash">354d86440f04590c289082e9d2af1c35</property>
  <property name="global_feed">1</property>
  <property name="xml">was here</property>
  <property name="meta.media.nb_streams">2</property>
  <property name="meta.media.0.stream.type">audio</property>
  <property name="meta.media.0.codec.sample_fmt">fltp</property>
  <property name="meta.media.0.codec.sample_rate">32000</property>
  <property name="meta.media.0.codec.channels">1</property>
  <property name="meta.media.0.codec.name">aac</property>
  <property name="meta.media.0.codec.long_name">AAC (Advanced Audio Coding)</property>
  <property name="meta.media.0.codec.bit_rate">126250</property>
  <property name="meta.attr.0.stream.creation_time.markup">2021-03-05T16:16:58.000000Z</property>
  <property name="meta.attr.0.stream.handler_name.markup">AAC audio</property>
  <property name="meta.media.1.stream.type">video</property>
  <property name="meta.media.1.stream.frame_rate">25</property>
  <property name="meta.media.1.stream.sample_aspect_ratio">0</property>
  <property name="meta.media.1.codec.width">1920</property>
  <property name="meta.media.1.codec.height">1080</property>
  <property name="meta.media.1.codec.rotate">0</property>
  <property name="meta.media.1.codec.frame_rate">30000</property>
  <property name="meta.media.1.codec.pix_fmt">yuv420p</property>
  <property name="meta.media.1.codec.sample_aspect_ratio">0</property>
  <property name="meta.media.1.codec.colorspace">709</property>
  <property name="meta.media.1.codec.name">h264</property>
  <property name="meta.media.1.codec.long_name">H.264 / AVC / MPEG-4 AVC / MPEG-4 part 10</property>
  <property name="meta.media.1.codec.bit_rate">144675</property>
  <property name="meta.attr.1.stream.creation_time.markup">2021-03-05T16:16:58.000000Z</property>
  <property name="meta.attr.1.stream.handler_name.markup">H.264/AVC video</property>
  <property name="meta.attr.1.stream.encoder.markup">AVC Coding</property>
  <property name="meta.attr.major_brand.markup">mp42</property>
  <property name="meta.attr.minor_version.markup">0</property>
  <property name="meta.attr.compatible_brands.markup">isommp42</property>
  <property name="meta.attr.creation_time.markup">2021-03-05T16:16:58.000000Z</property>
  <property name="meta.media.sample_aspect_num">1</property>
  <property name="meta.media.sample_aspect_den">1</property>
  <property name="meta.media.frame_rate_num">25</property>
  <property name="meta.media.frame_rate_den">1</property>
  <property name="meta.media.colorspace">709</property>
  <property name="meta.media.color_trc">2</property>
  <property name="meta.media.width">1920</property>
  <property name="meta.media.height">1080</property>
  <property name="meta.media.color_range">mpeg</property>
  <property name="meta.media.top_field_first">0</property>
  <property name="meta.media.progressive">1</property>
  <property name="set.test_audio">1</property>
  <property name="set.test_image">0</property>
 </producer>
 <producer id="producer13" in="00:00:00,000" out="00:00:41,500">
  <property name="length">1246</property>
  <property name="eof">pause</property>
  <property name="resource">C:/Users/wimme/Documents/Zoom/2021-03-05 17.10.38 Persönlicher Meetingraum von Lisa Wimmer 5439630184/zoom_2.mp4</property>
  <property name="audio_index">0</property>
  <property name="video_index">1</property>
  <property name="mute_on_pause">0</property>
  <property name="mlt_service">avformat-novalidate</property>
  <property name="seekable">1</property>
  <property name="aspect_ratio">1</property>
  <property name="kdenlive:clipname"/>
  <property name="kdenlive:folderid">-1</property>
  <property name="kdenlive:id">3</property>
  <property name="kdenlive:file_size">1742787</property>
  <property name="kdenlive:file_hash">2902a4c77a732f07ca21f8f361bfbcc0</property>
  <property name="global_feed">1</property>
  <property name="xml">was here</property>
  <property name="meta.media.nb_streams">2</property>
  <property name="meta.media.0.stream.type">audio</property>
  <property name="meta.media.0.codec.sample_fmt">fltp</property>
  <property name="meta.media.0.codec.sample_rate">32000</property>
  <property name="meta.media.0.codec.channels">1</property>
  <property name="meta.media.0.codec.name">aac</property>
  <property name="meta.media.0.codec.long_name">AAC (Advanced Audio Coding)</property>
  <property name="meta.media.0.codec.bit_rate">126263</property>
  <property name="meta.attr.0.stream.creation_time.markup">2021-03-05T16:17:27.000000Z</property>
  <property name="meta.attr.0.stream.handler_name.markup">AAC audio</property>
  <property name="meta.media.1.stream.type">video</property>
  <property name="meta.media.1.stream.frame_rate">25</property>
  <property name="meta.media.1.stream.sample_aspect_ratio">0</property>
  <property name="meta.media.1.codec.width">1920</property>
  <property name="meta.media.1.codec.height">1080</property>
  <property name="meta.media.1.codec.rotate">0</property>
  <property name="meta.media.1.codec.frame_rate">30000</property>
  <property name="meta.media.1.codec.pix_fmt">yuv420p</property>
  <property name="meta.media.1.codec.sample_aspect_ratio">0</property>
  <property name="meta.media.1.codec.colorspace">709</property>
  <property name="meta.media.1.codec.name">h264</property>
  <property name="meta.media.1.codec.long_name">H.264 / AVC / MPEG-4 AVC / MPEG-4 part 10</property>
  <property name="meta.media.1.codec.bit_rate">207296</property>
  <property name="meta.attr.1.stream.creation_time.markup">2021-03-05T16:17:27.000000Z</property>
  <property name="meta.attr.1.stream.handler_name.markup">H.264/AVC video</property>
  <property name="meta.attr.1.stream.encoder.markup">AVC Coding</property>
  <property name="meta.attr.major_brand.markup">mp42</property>
  <property name="meta.attr.minor_version.markup">0</property>
  <property name="meta.attr.compatible_brands.markup">isommp42</property>
  <property name="meta.attr.creation_time.markup">2021-03-05T16:17:27.000000Z</property>
  <property name="meta.media.sample_aspect_num">1</property>
  <property name="meta.media.sample_aspect_den">1</property>
  <property name="meta.media.frame_rate_num">25</property>
  <property name="meta.media.frame_rate_den">1</property>
  <property name="meta.media.colorspace">709</property>
  <property name="meta.media.color_trc">2</property>
  <property name="meta.media.width">1920</property>
  <property name="meta.media.height">1080</property>
  <property name="meta.media.color_range">mpeg</property>
  <property name="meta.media.top_field_first">0</property>
  <property name="meta.media.progressive">1</property>
  <property name="set.test_audio">1</property>
  <property name="set.test_image">0</property>
 </producer>
 <playlist id="playlist6">
  <entry producer="producer10" in="00:00:00,000" out="00:06:59,167">
   <property name="kdenlive:id">5</property>
  </entry>
  <entry producer="producer11" in="00:00:02,967" out="00:00:42,000">
   <property name="kdenlive:id">2</property>
  </entry>
  <entry producer="producer10" in="00:06:59,300" out="00:15:40,167">
   <property name="kdenlive:id">5</property>
  </entry>
  <entry producer="producer12" in="00:00:03,000" out="00:01:35,067">
   <property name="kdenlive:id">9</property>
  </entry>
  <entry producer="producer12" in="00:01:36,767" out="00:01:39,500">
   <property name="kdenlive:id">9</property>
  </entry>
  <entry producer="producer10" in="00:16:29,067" out="00:26:08,700">
   <property name="kdenlive:id">5</property>
  </entry>
  <entry producer="producer13" in="00:00:03,100" out="00:00:34,533">
   <property name="kdenlive:id">3</property>
  </entry>
  <entry producer="producer10" in="00:26:08,800" out="00:36:58,333">
   <property name="kdenlive:id">5</property>
  </entry>
 </playlist>
 <playlist id="playlist7"/>
 <tractor id="tractor3" in="00:00:00,000" out="00:38:54,700">
  <property name="kdenlive:trackheight">69</property>
  <property name="kdenlive:collapsed">0</property>
  <property name="kdenlive:thumbs_format"/>
  <property name="kdenlive:audio_rec"/>
  <property name="kdenlive:timeline_active">1</property>
  <track hide="audio" producer="playlist6"/>
  <track hide="audio" producer="playlist7"/>
 </tractor>
 <tractor id="tractor4" global_feed="1" in="00:00:00,000" out="00:55:34,733">
  <track producer="black_track"/>
  <track producer="tractor0"/>
  <track producer="tractor1"/>
  <track producer="tractor2"/>
  <track producer="tractor3"/>
  <transition id="transition0">
   <property name="a_track">0</property>
   <property name="b_track">1</property>
   <property name="mlt_service">mix</property>
   <property name="kdenlive_id">mix</property>
   <property name="internal_added">237</property>
   <property name="always_active">1</property>
   <property name="sum">1</property>
  </transition>
  <transition id="transition1">
   <property name="a_track">0</property>
   <property name="b_track">2</property>
   <property name="mlt_service">mix</property>
   <property name="kdenlive_id">mix</property>
   <property name="internal_added">237</property>
   <property name="always_active">1</property>
   <property name="sum">1</property>
  </transition>
  <transition id="transition2">
   <property name="a_track">0</property>
   <property name="b_track">3</property>
   <property name="compositing">0</property>
   <property name="distort">0</property>
   <property name="rotate_center">0</property>
   <property name="mlt_service">qtblend</property>
   <property name="kdenlive_id">qtblend</property>
   <property name="internal_added">237</property>
   <property name="always_active">1</property>
  </transition>
  <transition id="transition3">
   <property name="a_track">0</property>
   <property name="b_track">4</property>
   <property name="compositing">0</property>
   <property name="distort">0</property>
   <property name="rotate_center">0</property>
   <property name="mlt_service">qtblend</property>
   <property name="kdenlive_id">qtblend</property>
   <property name="internal_added">237</property>
   <property name="always_active">1</property>
  </transition>
  <filter id="filter6">
   <property name="window">75</property>
   <property name="max_gain">20dB</property>
   <property name="mlt_service">volume</property>
   <property name="internal_added">237</property>
   <property name="disable">1</property>
  </filter>
  <filter id="filter7">
   <property name="channel">-1</property>
   <property name="mlt_service">panner</property>
   <property name="internal_added">237</property>
   <property name="start">0,5</property>
   <property name="disable">1</property>
  </filter>
  <filter id="filter8">
   <property name="iec_scale">0</property>
   <property name="mlt_service">audiolevel</property>
   <property name="disable">1</property>
  </filter>
 </tractor>
</mlt>
